<svg width="1000" height="256" viewBox="0 0 1000 256" fill="none" xmlns="http://www.w3.org/2000/svg">
<rect width="1000" height="256" rx="4" fill="#0E182A"/>
<path d="M259.347 184C257.756 184 256.593 183.633 255.86 182.9C255.127 182.167 254.76 181.004 254.76 179.413V174.408C254.76 172.802 255.123 171.636 255.849 170.91C256.582 170.184 257.741 169.821 259.325 169.821H261.987C263.336 169.821 264.341 170.103 265.001 170.668C265.661 171.225 266.024 172.124 266.09 173.363C266.112 173.561 266.072 173.711 265.969 173.814C265.874 173.917 265.731 173.968 265.54 173.968C265.173 173.968 264.972 173.774 264.935 173.385C264.884 172.476 264.634 171.849 264.187 171.504C263.74 171.152 263.006 170.976 261.987 170.976H259.325C258.482 170.976 257.811 171.086 257.312 171.306C256.813 171.519 256.454 171.878 256.234 172.384C256.021 172.883 255.915 173.557 255.915 174.408V179.413C255.915 180.264 256.025 180.938 256.245 181.437C256.465 181.936 256.824 182.295 257.323 182.515C257.822 182.735 258.496 182.845 259.347 182.845H261.987C263.006 182.845 263.74 182.673 264.187 182.328C264.634 181.976 264.884 181.345 264.935 180.436C264.972 180.047 265.173 179.853 265.54 179.853C265.731 179.853 265.874 179.908 265.969 180.018C266.072 180.121 266.112 180.267 266.09 180.458C266.024 181.697 265.661 182.599 265.001 183.164C264.341 183.721 263.336 184 261.987 184H259.347ZM272.481 184C271.11 184 270.105 183.685 269.467 183.054C268.829 182.416 268.51 181.415 268.51 180.051V177.565C268.51 176.179 268.829 175.171 269.467 174.54C270.105 173.902 271.11 173.59 272.481 173.605H274.285C275.656 173.605 276.657 173.924 277.288 174.562C277.926 175.193 278.245 176.194 278.245 177.565V180.029C278.245 181.4 277.926 182.405 277.288 183.043C276.657 183.681 275.656 184 274.285 184H272.481ZM269.665 180.051C269.665 181.085 269.87 181.811 270.281 182.229C270.699 182.64 271.432 182.845 272.481 182.845H274.285C275.334 182.845 276.063 182.64 276.474 182.229C276.885 181.811 277.09 181.078 277.09 180.029V177.565C277.09 176.516 276.885 175.787 276.474 175.376C276.063 174.965 275.334 174.76 274.285 174.76H272.481C271.777 174.753 271.22 174.837 270.809 175.013C270.398 175.189 270.105 175.482 269.929 175.893C269.753 176.304 269.665 176.861 269.665 177.565V180.051ZM285.088 184C284.047 184 283.28 183.758 282.789 183.274C282.305 182.79 282.063 182.031 282.063 180.997V169.315C282.063 168.934 282.257 168.743 282.646 168.743C283.027 168.743 283.218 168.934 283.218 169.315V180.997C283.218 181.708 283.35 182.196 283.614 182.46C283.878 182.717 284.366 182.845 285.077 182.845C285.473 182.845 285.671 183.036 285.671 183.417C285.678 183.806 285.484 184 285.088 184ZM291.49 184C290.449 184 289.683 183.758 289.191 183.274C288.707 182.79 288.465 182.031 288.465 180.997V169.315C288.465 168.934 288.66 168.743 289.048 168.743C289.43 168.743 289.62 168.934 289.62 169.315V180.997C289.62 181.708 289.752 182.196 290.016 182.46C290.28 182.717 290.768 182.845 291.479 182.845C291.875 182.845 292.073 183.036 292.073 183.417C292.081 183.806 291.886 184 291.49 184ZM295.296 179.248V180.051C295.296 181.085 295.501 181.811 295.912 182.229C296.33 182.64 297.063 182.845 298.112 182.845H299.916C300.84 182.845 301.511 182.728 301.929 182.493C302.354 182.251 302.607 181.837 302.688 181.25C302.717 181.067 302.776 180.927 302.864 180.832C302.959 180.737 303.102 180.689 303.293 180.689C303.484 180.689 303.627 180.744 303.722 180.854C303.825 180.957 303.865 181.103 303.843 181.294C303.748 182.218 303.377 182.9 302.732 183.34C302.087 183.78 301.148 184 299.916 184H298.112C296.741 184 295.736 183.685 295.098 183.054C294.46 182.416 294.141 181.415 294.141 180.051V177.565C294.141 176.179 294.46 175.171 295.098 174.54C295.736 173.902 296.741 173.59 298.112 173.605H299.916C301.287 173.605 302.288 173.924 302.919 174.562C303.557 175.193 303.876 176.194 303.876 177.565V178.665C303.876 179.054 303.685 179.248 303.304 179.248H295.296ZM298.112 174.76C297.063 174.745 296.33 174.947 295.912 175.365C295.501 175.776 295.296 176.509 295.296 177.565V178.093H302.721V177.565C302.721 176.516 302.516 175.787 302.105 175.376C301.694 174.965 300.965 174.76 299.916 174.76H298.112ZM311.368 184C309.996 184 308.992 183.681 308.354 183.043C307.716 182.405 307.397 181.4 307.397 180.029V177.543C307.397 176.172 307.712 175.171 308.343 174.54C308.981 173.902 309.989 173.59 311.368 173.605H313.172C314.25 173.605 315.071 173.788 315.636 174.155C316.208 174.514 316.549 175.083 316.659 175.86C316.681 176.058 316.637 176.208 316.527 176.311C316.424 176.414 316.277 176.465 316.087 176.465C315.911 176.465 315.779 176.421 315.691 176.333C315.603 176.238 315.537 176.102 315.493 175.926C315.412 175.501 315.196 175.2 314.844 175.024C314.492 174.848 313.934 174.76 313.172 174.76H311.368C310.319 174.745 309.586 174.943 309.168 175.354C308.757 175.757 308.552 176.487 308.552 177.543V180.029C308.552 181.078 308.757 181.811 309.168 182.229C309.586 182.64 310.319 182.845 311.368 182.845H313.172C313.934 182.845 314.492 182.757 314.844 182.581C315.196 182.405 315.412 182.101 315.493 181.668C315.537 181.492 315.603 181.36 315.691 181.272C315.779 181.177 315.911 181.129 316.087 181.129C316.277 181.129 316.424 181.184 316.527 181.294C316.637 181.397 316.681 181.543 316.659 181.734C316.549 182.511 316.208 183.083 315.636 183.45C315.071 183.817 314.25 184 313.172 184H311.368ZM324.508 184C323.159 184 322.172 183.688 321.549 183.065C320.926 182.442 320.614 181.459 320.614 180.117V174.76H319.305C318.916 174.76 318.722 174.566 318.722 174.177C318.722 173.796 318.916 173.605 319.305 173.605H320.614V171.24C320.614 170.851 320.805 170.657 321.186 170.657C321.575 170.657 321.769 170.851 321.769 171.24V173.605H324.53C324.911 173.605 325.102 173.796 325.102 174.177C325.102 174.566 324.911 174.76 324.53 174.76H321.769V180.117C321.769 181.144 321.967 181.855 322.363 182.251C322.766 182.647 323.481 182.845 324.508 182.845C324.721 182.845 324.871 182.893 324.959 182.988C325.054 183.083 325.102 183.226 325.102 183.417C325.102 183.806 324.904 184 324.508 184ZM327.355 186.211C327.186 186.211 327.047 186.163 326.937 186.068C326.827 185.973 326.787 185.841 326.816 185.672L327.333 182.856C327.362 182.489 327.571 182.306 327.96 182.306H328.378C328.789 182.306 328.994 182.515 328.994 182.933V183.252C328.994 183.391 328.983 183.498 328.961 183.571C328.946 183.644 328.924 183.714 328.895 183.78L327.861 185.859C327.744 186.094 327.575 186.211 327.355 186.211ZM338.763 188.4C338.374 188.4 338.18 188.206 338.18 187.817V174.177C338.18 173.796 338.374 173.605 338.763 173.605C339.144 173.605 339.335 173.796 339.335 174.177V175.156C339.665 174.643 340.138 174.258 340.754 174.001C341.37 173.737 342.158 173.605 343.119 173.605H343.955C345.326 173.605 346.327 173.924 346.958 174.562C347.596 175.193 347.915 176.194 347.915 177.565V180.029C347.915 181.4 347.596 182.405 346.958 183.043C346.327 183.681 345.326 184 343.955 184H339.335V187.817C339.335 188.206 339.144 188.4 338.763 188.4ZM339.335 182.845H343.955C345.004 182.845 345.733 182.64 346.144 182.229C346.555 181.811 346.76 181.078 346.76 180.029V177.565C346.76 176.516 346.555 175.787 346.144 175.376C345.733 174.965 345.004 174.76 343.955 174.76H343.119C341.946 174.76 341.044 174.943 340.413 175.31C339.79 175.677 339.43 176.241 339.335 177.004V182.845ZM352.32 184C351.931 184 351.737 183.806 351.737 183.417V174.177C351.737 173.796 351.931 173.605 352.32 173.605C352.701 173.605 352.892 173.796 352.892 174.177V175.871C353.273 175.138 353.823 174.577 354.542 174.188C355.268 173.799 356.126 173.605 357.116 173.605C357.504 173.605 357.699 173.796 357.699 174.177C357.699 174.566 357.504 174.76 357.116 174.76C355.81 174.76 354.798 175.057 354.08 175.651C353.361 176.238 352.965 177.077 352.892 178.17V183.417C352.892 183.806 352.701 184 352.32 184ZM363.274 184C361.903 184 360.898 183.685 360.26 183.054C359.622 182.416 359.303 181.415 359.303 180.051V177.565C359.303 176.179 359.622 175.171 360.26 174.54C360.898 173.902 361.903 173.59 363.274 173.605H365.078C366.449 173.605 367.45 173.924 368.081 174.562C368.719 175.193 369.038 176.194 369.038 177.565V180.029C369.038 181.4 368.719 182.405 368.081 183.043C367.45 183.681 366.449 184 365.078 184H363.274ZM360.458 180.051C360.458 181.085 360.663 181.811 361.074 182.229C361.492 182.64 362.225 182.845 363.274 182.845H365.078C366.127 182.845 366.856 182.64 367.267 182.229C367.678 181.811 367.883 181.078 367.883 180.029V177.565C367.883 176.516 367.678 175.787 367.267 175.376C366.856 174.965 366.127 174.76 365.078 174.76H363.274C362.57 174.753 362.013 174.837 361.602 175.013C361.191 175.189 360.898 175.482 360.722 175.893C360.546 176.304 360.458 176.861 360.458 177.565V180.051ZM376.53 184C375.158 184 374.154 183.681 373.516 183.043C372.878 182.405 372.559 181.4 372.559 180.029V177.543C372.559 176.172 372.874 175.171 373.505 174.54C374.143 173.902 375.151 173.59 376.53 173.605H378.334C379.412 173.605 380.233 173.788 380.798 174.155C381.37 174.514 381.711 175.083 381.821 175.86C381.843 176.058 381.799 176.208 381.689 176.311C381.586 176.414 381.439 176.465 381.249 176.465C381.073 176.465 380.941 176.421 380.853 176.333C380.765 176.238 380.699 176.102 380.655 175.926C380.574 175.501 380.358 175.2 380.006 175.024C379.654 174.848 379.096 174.76 378.334 174.76H376.53C375.481 174.745 374.748 174.943 374.33 175.354C373.919 175.757 373.714 176.487 373.714 177.543V180.029C373.714 181.078 373.919 181.811 374.33 182.229C374.748 182.64 375.481 182.845 376.53 182.845H378.334C379.096 182.845 379.654 182.757 380.006 182.581C380.358 182.405 380.574 182.101 380.655 181.668C380.699 181.492 380.765 181.36 380.853 181.272C380.941 181.177 381.073 181.129 381.249 181.129C381.439 181.129 381.586 181.184 381.689 181.294C381.799 181.397 381.843 181.543 381.821 181.734C381.711 182.511 381.37 183.083 380.798 183.45C380.233 183.817 379.412 184 378.334 184H376.53ZM386.282 179.248V180.051C386.282 181.085 386.488 181.811 386.898 182.229C387.316 182.64 388.05 182.845 389.098 182.845H390.902C391.826 182.845 392.497 182.728 392.915 182.493C393.341 182.251 393.594 181.837 393.674 181.25C393.704 181.067 393.762 180.927 393.85 180.832C393.946 180.737 394.089 180.689 394.279 180.689C394.47 180.689 394.613 180.744 394.708 180.854C394.811 180.957 394.851 181.103 394.829 181.294C394.734 182.218 394.364 182.9 393.718 183.34C393.073 183.78 392.134 184 390.902 184H389.098C387.727 184 386.722 183.685 386.084 183.054C385.446 182.416 385.127 181.415 385.127 180.051V177.565C385.127 176.179 385.446 175.171 386.084 174.54C386.722 173.902 387.727 173.59 389.098 173.605H390.902C392.274 173.605 393.275 173.924 393.905 174.562C394.543 175.193 394.862 176.194 394.862 177.565V178.665C394.862 179.054 394.672 179.248 394.29 179.248H386.282ZM389.098 174.76C388.05 174.745 387.316 174.947 386.898 175.365C386.488 175.776 386.282 176.509 386.282 177.565V178.093H393.707V177.565C393.707 176.516 393.502 175.787 393.091 175.376C392.681 174.965 391.951 174.76 390.902 174.76H389.098ZM400.957 183.978C400.055 183.978 399.366 183.787 398.889 183.406C398.412 183.017 398.126 182.427 398.031 181.635C398.009 181.444 398.049 181.298 398.152 181.195C398.255 181.085 398.405 181.03 398.603 181.03C398.786 181.03 398.922 181.078 399.01 181.173C399.105 181.268 399.168 181.411 399.197 181.602C399.263 182.057 399.428 182.376 399.692 182.559C399.963 182.735 400.385 182.823 400.957 182.823H404.565C405.247 182.823 405.716 182.695 405.973 182.438C406.23 182.181 406.358 181.712 406.358 181.03C406.358 180.341 406.23 179.868 405.973 179.611C405.716 179.354 405.247 179.226 404.565 179.226H401.001C400.048 179.226 399.336 178.999 398.867 178.544C398.405 178.082 398.174 177.374 398.174 176.421C398.174 175.446 398.405 174.731 398.867 174.276C399.329 173.814 400.04 173.583 401.001 173.583H404.455C406.112 173.583 407.033 174.316 407.216 175.783C407.245 175.974 407.205 176.124 407.095 176.234C406.992 176.337 406.846 176.388 406.655 176.388C406.472 176.388 406.332 176.34 406.237 176.245C406.149 176.15 406.087 176.01 406.05 175.827C405.999 175.416 405.848 175.134 405.599 174.98C405.357 174.819 404.976 174.738 404.455 174.738H401.001C400.363 174.738 399.923 174.855 399.681 175.09C399.446 175.325 399.329 175.768 399.329 176.421C399.329 177.044 399.45 177.477 399.692 177.719C399.934 177.954 400.37 178.071 401.001 178.071H404.565C405.577 178.071 406.321 178.313 406.798 178.797C407.275 179.274 407.513 180.018 407.513 181.03C407.513 182.035 407.275 182.779 406.798 183.263C406.321 183.74 405.577 183.978 404.565 183.978H400.957ZM413.246 183.978C412.344 183.978 411.655 183.787 411.178 183.406C410.701 183.017 410.415 182.427 410.32 181.635C410.298 181.444 410.338 181.298 410.441 181.195C410.544 181.085 410.694 181.03 410.892 181.03C411.075 181.03 411.211 181.078 411.299 181.173C411.394 181.268 411.457 181.411 411.486 181.602C411.552 182.057 411.717 182.376 411.981 182.559C412.252 182.735 412.674 182.823 413.246 182.823H416.854C417.536 182.823 418.005 182.695 418.262 182.438C418.519 182.181 418.647 181.712 418.647 181.03C418.647 180.341 418.519 179.868 418.262 179.611C418.005 179.354 417.536 179.226 416.854 179.226H413.29C412.337 179.226 411.625 178.999 411.156 178.544C410.694 178.082 410.463 177.374 410.463 176.421C410.463 175.446 410.694 174.731 411.156 174.276C411.618 173.814 412.329 173.583 413.29 173.583H416.744C418.401 173.583 419.322 174.316 419.505 175.783C419.534 175.974 419.494 176.124 419.384 176.234C419.281 176.337 419.135 176.388 418.944 176.388C418.761 176.388 418.621 176.34 418.526 176.245C418.438 176.15 418.376 176.01 418.339 175.827C418.288 175.416 418.137 175.134 417.888 174.98C417.646 174.819 417.265 174.738 416.744 174.738H413.29C412.652 174.738 412.212 174.855 411.97 175.09C411.735 175.325 411.618 175.768 411.618 176.421C411.618 177.044 411.739 177.477 411.981 177.719C412.223 177.954 412.659 178.071 413.29 178.071H416.854C417.866 178.071 418.61 178.313 419.087 178.797C419.564 179.274 419.802 180.018 419.802 181.03C419.802 182.035 419.564 182.779 419.087 183.263C418.61 183.74 417.866 183.978 416.854 183.978H413.246ZM431.871 184C430.727 184 429.887 183.736 429.352 183.208C428.824 182.673 428.56 181.833 428.56 180.689C428.56 179.545 428.827 178.705 429.363 178.17C429.898 177.635 430.734 177.367 431.871 177.367H436.876C436.861 176.399 436.641 175.724 436.216 175.343C435.798 174.954 435.083 174.76 434.071 174.76H432.795C431.863 174.76 431.181 174.859 430.749 175.057C430.316 175.255 430.048 175.592 429.946 176.069C429.894 176.252 429.825 176.388 429.737 176.476C429.656 176.557 429.524 176.597 429.341 176.597C429.15 176.597 429 176.546 428.89 176.443C428.787 176.333 428.75 176.186 428.78 176.003C428.875 175.167 429.253 174.558 429.913 174.177C430.58 173.796 431.541 173.605 432.795 173.605H434.071C435.442 173.605 436.443 173.924 437.074 174.562C437.712 175.193 438.031 176.194 438.031 177.565V183.417C438.031 183.806 437.84 184 437.459 184C437.07 184 436.876 183.806 436.876 183.417V182.328C436.172 183.443 434.914 184 433.103 184H431.871ZM431.871 182.845H433.103C433.814 182.845 434.437 182.768 434.973 182.614C435.515 182.453 435.952 182.196 436.282 181.844C436.612 181.492 436.81 181.023 436.876 180.436V178.522H431.871C431.057 178.522 430.492 178.68 430.177 178.995C429.869 179.303 429.715 179.868 429.715 180.689C429.715 181.503 429.869 182.068 430.177 182.383C430.492 182.691 431.057 182.845 431.871 182.845ZM442.533 184C442.144 184 441.95 183.806 441.95 183.417V174.177C441.95 173.796 442.144 173.605 442.533 173.605C442.914 173.605 443.105 173.796 443.105 174.177V175.233C443.801 174.148 445.063 173.605 446.889 173.605H447.505C448.876 173.605 449.877 173.924 450.508 174.562C451.146 175.193 451.465 176.194 451.465 177.565V183.417C451.465 183.806 451.274 184 450.893 184C450.504 184 450.31 183.806 450.31 183.417V177.565C450.31 176.516 450.101 175.787 449.683 175.376C449.272 174.965 448.546 174.76 447.505 174.76H446.889C445.752 174.76 444.857 174.94 444.205 175.299C443.552 175.658 443.185 176.219 443.105 176.982V183.417C443.105 183.806 442.914 184 442.533 184ZM459.051 184C457.68 184 456.675 183.681 456.037 183.043C455.399 182.405 455.08 181.4 455.08 180.029V177.565C455.08 176.194 455.399 175.193 456.037 174.562C456.675 173.924 457.68 173.605 459.051 173.605H463.66V169.315C463.66 168.934 463.855 168.743 464.243 168.743C464.625 168.743 464.815 168.934 464.815 169.315V183.417C464.815 183.806 464.625 184 464.243 184C463.855 184 463.66 183.806 463.66 183.417V182.471C463.345 182.977 462.883 183.358 462.274 183.615C461.666 183.872 460.87 184 459.887 184H459.051ZM459.051 182.845H459.887C461.031 182.845 461.944 182.665 462.626 182.306C463.316 181.939 463.66 181.393 463.66 180.667V174.76H459.051C458.003 174.76 457.269 174.969 456.851 175.387C456.441 175.798 456.235 176.524 456.235 177.565V180.029C456.235 181.078 456.441 181.811 456.851 182.229C457.269 182.64 458.003 182.845 459.051 182.845ZM478.255 183.56C478.174 183.736 478.075 183.853 477.958 183.912C477.841 183.971 477.705 184 477.551 184C477.228 184 477.001 183.85 476.869 183.549L472.788 174.408C472.634 174.049 472.74 173.799 473.107 173.66C473.452 173.513 473.701 173.616 473.855 173.968L477.925 183.076H477.221L481.555 173.957C481.636 173.788 481.742 173.678 481.874 173.627C482.006 173.576 482.156 173.587 482.325 173.66C482.684 173.821 482.783 174.078 482.622 174.43L478.255 183.56ZM485.867 184C485.478 184 485.284 183.806 485.284 183.417V174.177C485.284 173.796 485.478 173.605 485.867 173.605C486.248 173.605 486.439 173.796 486.439 174.177V183.417C486.439 183.806 486.248 184 485.867 184ZM485.625 171.592C485.119 171.592 484.866 171.332 484.866 170.811V170.316C484.866 169.817 485.119 169.568 485.625 169.568H486.109C486.607 169.568 486.857 169.817 486.857 170.316V170.811C486.857 171.332 486.607 171.592 486.109 171.592H485.625ZM492.824 183.978C491.922 183.978 491.233 183.787 490.756 183.406C490.28 183.017 489.994 182.427 489.898 181.635C489.876 181.444 489.917 181.298 490.019 181.195C490.122 181.085 490.272 181.03 490.47 181.03C490.654 181.03 490.789 181.078 490.877 181.173C490.973 181.268 491.035 181.411 491.064 181.602C491.13 182.057 491.295 182.376 491.559 182.559C491.831 182.735 492.252 182.823 492.824 182.823H496.432C497.114 182.823 497.584 182.695 497.84 182.438C498.097 182.181 498.225 181.712 498.225 181.03C498.225 180.341 498.097 179.868 497.84 179.611C497.584 179.354 497.114 179.226 496.432 179.226H492.868C491.915 179.226 491.204 178.999 490.734 178.544C490.272 178.082 490.041 177.374 490.041 176.421C490.041 175.446 490.272 174.731 490.734 174.276C491.196 173.814 491.908 173.583 492.868 173.583H496.322C497.98 173.583 498.9 174.316 499.083 175.783C499.113 175.974 499.072 176.124 498.962 176.234C498.86 176.337 498.713 176.388 498.522 176.388C498.339 176.388 498.2 176.34 498.104 176.245C498.016 176.15 497.954 176.01 497.917 175.827C497.866 175.416 497.716 175.134 497.466 174.98C497.224 174.819 496.843 174.738 496.322 174.738H492.868C492.23 174.738 491.79 174.855 491.548 175.09C491.314 175.325 491.196 175.768 491.196 176.421C491.196 177.044 491.317 177.477 491.559 177.719C491.801 177.954 492.238 178.071 492.868 178.071H496.432C497.444 178.071 498.189 178.313 498.665 178.797C499.142 179.274 499.38 180.018 499.38 181.03C499.38 182.035 499.142 182.779 498.665 183.263C498.189 183.74 497.444 183.978 496.432 183.978H492.824ZM511.57 173.605C511.959 173.605 512.153 173.799 512.153 174.188V183.428C512.153 183.809 511.959 184 511.57 184C511.189 184 510.998 183.809 510.998 183.428V182.372C510.302 183.457 509.04 184 507.214 184H506.598C505.227 184 504.222 183.685 503.584 183.054C502.954 182.416 502.638 181.411 502.638 180.04V174.188C502.638 173.799 502.829 173.605 503.21 173.605C503.599 173.605 503.793 173.799 503.793 174.188V180.04C503.793 181.089 503.999 181.818 504.409 182.229C504.827 182.64 505.557 182.845 506.598 182.845H507.214C508.351 182.845 509.246 182.665 509.898 182.306C510.551 181.947 510.918 181.386 510.998 180.623V174.188C510.998 173.799 511.189 173.605 511.57 173.605ZM519.355 184C518.211 184 517.371 183.736 516.836 183.208C516.308 182.673 516.044 181.833 516.044 180.689C516.044 179.545 516.312 178.705 516.847 178.17C517.382 177.635 518.218 177.367 519.355 177.367H524.36C524.345 176.399 524.125 175.724 523.7 175.343C523.282 174.954 522.567 174.76 521.555 174.76H520.279C519.348 174.76 518.666 174.859 518.233 175.057C517.8 175.255 517.533 175.592 517.43 176.069C517.379 176.252 517.309 176.388 517.221 176.476C517.14 176.557 517.008 176.597 516.825 176.597C516.634 176.597 516.484 176.546 516.374 176.443C516.271 176.333 516.235 176.186 516.264 176.003C516.359 175.167 516.737 174.558 517.397 174.177C518.064 173.796 519.025 173.605 520.279 173.605H521.555C522.926 173.605 523.927 173.924 524.558 174.562C525.196 175.193 525.515 176.194 525.515 177.565V183.417C525.515 183.806 525.324 184 524.943 184C524.554 184 524.36 183.806 524.36 183.417V182.328C523.656 183.443 522.398 184 520.587 184H519.355ZM519.355 182.845H520.587C521.298 182.845 521.922 182.768 522.457 182.614C523 182.453 523.436 182.196 523.766 181.844C524.096 181.492 524.294 181.023 524.36 180.436V178.522H519.355C518.541 178.522 517.976 178.68 517.661 178.995C517.353 179.303 517.199 179.868 517.199 180.689C517.199 181.503 517.353 182.068 517.661 182.383C517.976 182.691 518.541 182.845 519.355 182.845ZM532.459 184C531.418 184 530.651 183.758 530.16 183.274C529.676 182.79 529.434 182.031 529.434 180.997V169.315C529.434 168.934 529.628 168.743 530.017 168.743C530.398 168.743 530.589 168.934 530.589 169.315V180.997C530.589 181.708 530.721 182.196 530.985 182.46C531.249 182.717 531.737 182.845 532.448 182.845C532.844 182.845 533.042 183.036 533.042 183.417C533.049 183.806 532.855 184 532.459 184ZM536.419 184C536.031 184 535.836 183.806 535.836 183.417V174.177C535.836 173.796 536.031 173.605 536.419 173.605C536.801 173.605 536.991 173.796 536.991 174.177V183.417C536.991 183.806 536.801 184 536.419 184ZM536.177 171.592C535.671 171.592 535.418 171.332 535.418 170.811V170.316C535.418 169.817 535.671 169.568 536.177 169.568H536.661C537.16 169.568 537.409 169.817 537.409 170.316V170.811C537.409 171.332 537.16 171.592 536.661 171.592H536.177ZM540.968 184C540.579 184 540.385 183.806 540.385 183.417C540.385 183.226 540.469 183.025 540.638 182.812L547.37 174.496L547.81 174.76H542.827C542.292 174.76 541.903 174.837 541.661 174.991C541.419 175.145 541.265 175.435 541.199 175.86C541.17 176.043 541.107 176.183 541.012 176.278C540.924 176.373 540.792 176.421 540.616 176.421C540.418 176.421 540.268 176.37 540.165 176.267C540.062 176.164 540.022 176.014 540.044 175.816C540.125 175.053 540.392 174.496 540.847 174.144C541.309 173.785 541.969 173.605 542.827 173.605H548.217C548.598 173.605 548.789 173.796 548.789 174.177C548.789 174.39 548.708 174.599 548.547 174.804L541.925 183.01L541.518 182.834L546.831 182.845C547.337 182.845 547.718 182.761 547.975 182.592C548.232 182.416 548.389 182.13 548.448 181.734C548.492 181.551 548.558 181.411 548.646 181.316C548.734 181.221 548.87 181.173 549.053 181.173C549.251 181.173 549.401 181.228 549.504 181.338C549.607 181.441 549.643 181.587 549.614 181.778C549.416 183.259 548.488 184 546.831 184H540.968ZM552.872 179.248V180.051C552.872 181.085 553.077 181.811 553.488 182.229C553.906 182.64 554.639 182.845 555.688 182.845H557.492C558.416 182.845 559.087 182.728 559.505 182.493C559.93 182.251 560.183 181.837 560.264 181.25C560.293 181.067 560.352 180.927 560.44 180.832C560.535 180.737 560.678 180.689 560.869 180.689C561.06 180.689 561.203 180.744 561.298 180.854C561.401 180.957 561.441 181.103 561.419 181.294C561.324 182.218 560.953 182.9 560.308 183.34C559.663 183.78 558.724 184 557.492 184H555.688C554.317 184 553.312 183.685 552.674 183.054C552.036 182.416 551.717 181.415 551.717 180.051V177.565C551.717 176.179 552.036 175.171 552.674 174.54C553.312 173.902 554.317 173.59 555.688 173.605H557.492C558.863 173.605 559.864 173.924 560.495 174.562C561.133 175.193 561.452 176.194 561.452 177.565V178.665C561.452 179.054 561.261 179.248 560.88 179.248H552.872ZM555.688 174.76C554.639 174.745 553.906 174.947 553.488 175.365C553.077 175.776 552.872 176.509 552.872 177.565V178.093H560.297V177.565C560.297 176.516 560.092 175.787 559.681 175.376C559.27 174.965 558.541 174.76 557.492 174.76H555.688ZM573.409 188.4C572.449 188.4 571.737 188.169 571.275 187.707C570.821 187.245 570.593 186.526 570.593 185.551C570.593 185.17 570.784 184.979 571.165 184.979C571.554 184.979 571.748 185.17 571.748 185.551C571.748 186.211 571.866 186.658 572.1 186.893C572.335 187.128 572.771 187.245 573.409 187.245H577.215C577.861 187.245 578.301 187.128 578.535 186.893C578.77 186.658 578.887 186.211 578.887 185.551V182.526C578.469 183.076 577.945 183.461 577.314 183.681C576.684 183.901 575.947 184.011 575.103 184.011H574.487C573.138 184.011 572.152 183.699 571.528 183.076C570.905 182.453 570.593 181.474 570.593 180.139V174.166C570.593 173.777 570.784 173.583 571.165 173.583C571.554 173.583 571.748 173.777 571.748 174.166V180.139C571.748 181.158 571.946 181.866 572.342 182.262C572.746 182.658 573.461 182.856 574.487 182.856H575.103C576.387 182.856 577.336 182.632 577.952 182.185C578.576 181.73 578.887 181.048 578.887 180.139V174.166C578.887 173.777 579.078 173.583 579.459 173.583C579.848 173.583 580.042 173.777 580.042 174.166V185.551C580.042 186.526 579.811 187.245 579.349 187.707C578.895 188.169 578.183 188.4 577.215 188.4H573.409ZM587.829 184C586.457 184 585.453 183.685 584.815 183.054C584.177 182.416 583.858 181.415 583.858 180.051V177.565C583.858 176.179 584.177 175.171 584.815 174.54C585.453 173.902 586.457 173.59 587.829 173.605H589.633C591.004 173.605 592.005 173.924 592.636 174.562C593.274 175.193 593.593 176.194 593.593 177.565V180.029C593.593 181.4 593.274 182.405 592.636 183.043C592.005 183.681 591.004 184 589.633 184H587.829ZM585.013 180.051C585.013 181.085 585.218 181.811 585.629 182.229C586.047 182.64 586.78 182.845 587.829 182.845H589.633C590.681 182.845 591.411 182.64 591.822 182.229C592.232 181.811 592.438 181.078 592.438 180.029V177.565C592.438 176.516 592.232 175.787 591.822 175.376C591.411 174.965 590.681 174.76 589.633 174.76H587.829C587.125 174.753 586.567 174.837 586.157 175.013C585.746 175.189 585.453 175.482 585.277 175.893C585.101 176.304 585.013 176.861 585.013 177.565V180.051ZM606.145 173.605C606.533 173.605 606.728 173.799 606.728 174.188V183.428C606.728 183.809 606.533 184 606.145 184C605.763 184 605.573 183.809 605.573 183.428V182.372C604.876 183.457 603.615 184 601.789 184H601.173C599.801 184 598.797 183.685 598.159 183.054C597.528 182.416 597.213 181.411 597.213 180.04V174.188C597.213 173.799 597.403 173.605 597.785 173.605C598.173 173.605 598.368 173.799 598.368 174.188V180.04C598.368 181.089 598.573 181.818 598.984 182.229C599.402 182.64 600.131 182.845 601.173 182.845H601.789C602.925 182.845 603.82 182.665 604.473 182.306C605.125 181.947 605.492 181.386 605.573 180.623V174.188C605.573 173.799 605.763 173.605 606.145 173.605ZM611.421 184C611.033 184 610.838 183.806 610.838 183.417V174.177C610.838 173.796 611.033 173.605 611.421 173.605C611.803 173.605 611.993 173.796 611.993 174.177V175.871C612.375 175.138 612.925 174.577 613.643 174.188C614.369 173.799 615.227 173.605 616.217 173.605C616.606 173.605 616.8 173.796 616.8 174.177C616.8 174.566 616.606 174.76 616.217 174.76C614.912 174.76 613.9 175.057 613.181 175.651C612.463 176.238 612.067 177.077 611.993 178.17V183.417C611.993 183.806 611.803 184 611.421 184ZM626.93 183.978C626.028 183.978 625.338 183.787 624.862 183.406C624.385 183.017 624.099 182.427 624.004 181.635C623.982 181.444 624.022 181.298 624.125 181.195C624.227 181.085 624.378 181.03 624.576 181.03C624.759 181.03 624.895 181.078 624.983 181.173C625.078 181.268 625.14 181.411 625.17 181.602C625.236 182.057 625.401 182.376 625.665 182.559C625.936 182.735 626.358 182.823 626.93 182.823H630.538C631.22 182.823 631.689 182.695 631.946 182.438C632.202 182.181 632.331 181.712 632.331 181.03C632.331 180.341 632.202 179.868 631.946 179.611C631.689 179.354 631.22 179.226 630.538 179.226H626.974C626.02 179.226 625.309 178.999 624.84 178.544C624.378 178.082 624.147 177.374 624.147 176.421C624.147 175.446 624.378 174.731 624.84 174.276C625.302 173.814 626.013 173.583 626.974 173.583H630.428C632.085 173.583 633.005 174.316 633.189 175.783C633.218 175.974 633.178 176.124 633.068 176.234C632.965 176.337 632.818 176.388 632.628 176.388C632.444 176.388 632.305 176.34 632.21 176.245C632.122 176.15 632.059 176.01 632.023 175.827C631.971 175.416 631.821 175.134 631.572 174.98C631.33 174.819 630.948 174.738 630.428 174.738H626.974C626.336 174.738 625.896 174.855 625.654 175.09C625.419 175.325 625.302 175.768 625.302 176.421C625.302 177.044 625.423 177.477 625.665 177.719C625.907 177.954 626.343 178.071 626.974 178.071H630.538C631.55 178.071 632.294 178.313 632.771 178.797C633.247 179.274 633.486 180.018 633.486 181.03C633.486 182.035 633.247 182.779 632.771 183.263C632.294 183.74 631.55 183.978 630.538 183.978H626.93ZM637.8 179.248V180.051C637.8 181.085 638.005 181.811 638.416 182.229C638.834 182.64 639.567 182.845 640.616 182.845H642.42C643.344 182.845 644.015 182.728 644.433 182.493C644.858 182.251 645.111 181.837 645.192 181.25C645.221 181.067 645.28 180.927 645.368 180.832C645.463 180.737 645.606 180.689 645.797 180.689C645.987 180.689 646.13 180.744 646.226 180.854C646.328 180.957 646.369 181.103 646.347 181.294C646.251 182.218 645.881 182.9 645.236 183.34C644.59 183.78 643.652 184 642.42 184H640.616C639.244 184 638.24 183.685 637.602 183.054C636.964 182.416 636.645 181.415 636.645 180.051V177.565C636.645 176.179 636.964 175.171 637.602 174.54C638.24 173.902 639.244 173.59 640.616 173.605H642.42C643.791 173.605 644.792 173.924 645.423 174.562C646.061 175.193 646.38 176.194 646.38 177.565V178.665C646.38 179.054 646.189 179.248 645.808 179.248H637.8ZM640.616 174.76C639.567 174.745 638.834 174.947 638.416 175.365C638.005 175.776 637.8 176.509 637.8 177.565V178.093H645.225V177.565C645.225 176.516 645.019 175.787 644.609 175.376C644.198 174.965 643.468 174.76 642.42 174.76H640.616ZM650.781 184C650.392 184 650.198 183.806 650.198 183.417V174.177C650.198 173.796 650.392 173.605 650.781 173.605C651.162 173.605 651.353 173.796 651.353 174.177V175.233C652.049 174.148 653.311 173.605 655.137 173.605H655.753C657.124 173.605 658.125 173.924 658.756 174.562C659.394 175.193 659.713 176.194 659.713 177.565V183.417C659.713 183.806 659.522 184 659.141 184C658.752 184 658.558 183.806 658.558 183.417V177.565C658.558 176.516 658.349 175.787 657.931 175.376C657.52 174.965 656.794 174.76 655.753 174.76H655.137C654 174.76 653.105 174.94 652.453 175.299C651.8 175.658 651.433 176.219 651.353 176.982V183.417C651.353 183.806 651.162 184 650.781 184ZM665.902 183.978C665 183.978 664.311 183.787 663.834 183.406C663.358 183.017 663.072 182.427 662.976 181.635C662.954 181.444 662.995 181.298 663.097 181.195C663.2 181.085 663.35 181.03 663.548 181.03C663.732 181.03 663.867 181.078 663.955 181.173C664.051 181.268 664.113 181.411 664.142 181.602C664.208 182.057 664.373 182.376 664.637 182.559C664.909 182.735 665.33 182.823 665.902 182.823H669.51C670.192 182.823 670.662 182.695 670.918 182.438C671.175 182.181 671.303 181.712 671.303 181.03C671.303 180.341 671.175 179.868 670.918 179.611C670.662 179.354 670.192 179.226 669.51 179.226H665.946C664.993 179.226 664.282 178.999 663.812 178.544C663.35 178.082 663.119 177.374 663.119 176.421C663.119 175.446 663.35 174.731 663.812 174.276C664.274 173.814 664.986 173.583 665.946 173.583H669.4C671.058 173.583 671.978 174.316 672.161 175.783C672.191 175.974 672.15 176.124 672.04 176.234C671.938 176.337 671.791 176.388 671.6 176.388C671.417 176.388 671.278 176.34 671.182 176.245C671.094 176.15 671.032 176.01 670.995 175.827C670.944 175.416 670.794 175.134 670.544 174.98C670.302 174.819 669.921 174.738 669.4 174.738H665.946C665.308 174.738 664.868 174.855 664.626 175.09C664.392 175.325 664.274 175.768 664.274 176.421C664.274 177.044 664.395 177.477 664.637 177.719C664.879 177.954 665.316 178.071 665.946 178.071H669.51C670.522 178.071 671.267 178.313 671.743 178.797C672.22 179.274 672.458 180.018 672.458 181.03C672.458 182.035 672.22 182.779 671.743 183.263C671.267 183.74 670.522 183.978 669.51 183.978H665.902ZM679.588 184C678.217 184 677.212 183.685 676.574 183.054C675.936 182.416 675.617 181.415 675.617 180.051V177.565C675.617 176.179 675.936 175.171 676.574 174.54C677.212 173.902 678.217 173.59 679.588 173.605H681.392C682.764 173.605 683.765 173.924 684.395 174.562C685.033 175.193 685.352 176.194 685.352 177.565V180.029C685.352 181.4 685.033 182.405 684.395 183.043C683.765 183.681 682.764 184 681.392 184H679.588ZM676.772 180.051C676.772 181.085 676.978 181.811 677.388 182.229C677.806 182.64 678.54 182.845 679.588 182.845H681.392C682.441 182.845 683.171 182.64 683.581 182.229C683.992 181.811 684.197 181.078 684.197 180.029V177.565C684.197 176.516 683.992 175.787 683.581 175.376C683.171 174.965 682.441 174.76 681.392 174.76H679.588C678.884 174.753 678.327 174.837 677.916 175.013C677.506 175.189 677.212 175.482 677.036 175.893C676.86 176.304 676.772 176.861 676.772 177.565V180.051ZM689.753 184C689.365 184 689.17 183.806 689.17 183.417V174.177C689.17 173.796 689.365 173.605 689.753 173.605C690.135 173.605 690.325 173.796 690.325 174.177V175.871C690.707 175.138 691.257 174.577 691.975 174.188C692.701 173.799 693.559 173.605 694.549 173.605C694.938 173.605 695.132 173.796 695.132 174.177C695.132 174.566 694.938 174.76 694.549 174.76C693.244 174.76 692.232 175.057 691.513 175.651C690.795 176.238 690.399 177.077 690.325 178.17V183.417C690.325 183.806 690.135 184 689.753 184ZM706.659 184C705.287 184 704.283 183.681 703.645 183.043C703.007 182.405 702.688 181.4 702.688 180.029V177.565C702.688 176.194 703.007 175.193 703.645 174.562C704.283 173.924 705.287 173.605 706.659 173.605H711.268V169.315C711.268 168.934 711.462 168.743 711.851 168.743C712.232 168.743 712.423 168.934 712.423 169.315V183.417C712.423 183.806 712.232 184 711.851 184C711.462 184 711.268 183.806 711.268 183.417V182.471C710.952 182.977 710.49 183.358 709.882 183.615C709.273 183.872 708.477 184 707.495 184H706.659ZM706.659 182.845H707.495C708.639 182.845 709.552 182.665 710.234 182.306C710.923 181.939 711.268 181.393 711.268 180.667V174.76H706.659C705.61 174.76 704.877 174.969 704.459 175.387C704.048 175.798 703.843 176.524 703.843 177.565V180.029C703.843 181.078 704.048 181.811 704.459 182.229C704.877 182.64 705.61 182.845 706.659 182.845ZM719.439 184C718.295 184 717.455 183.736 716.92 183.208C716.392 182.673 716.128 181.833 716.128 180.689C716.128 179.545 716.396 178.705 716.931 178.17C717.466 177.635 718.302 177.367 719.439 177.367H724.444C724.429 176.399 724.209 175.724 723.784 175.343C723.366 174.954 722.651 174.76 721.639 174.76H720.363C719.432 174.76 718.75 174.859 718.317 175.057C717.884 175.255 717.617 175.592 717.514 176.069C717.463 176.252 717.393 176.388 717.305 176.476C717.224 176.557 717.092 176.597 716.909 176.597C716.718 176.597 716.568 176.546 716.458 176.443C716.355 176.333 716.319 176.186 716.348 176.003C716.443 175.167 716.821 174.558 717.481 174.177C718.148 173.796 719.109 173.605 720.363 173.605H721.639C723.01 173.605 724.011 173.924 724.642 174.562C725.28 175.193 725.599 176.194 725.599 177.565V183.417C725.599 183.806 725.408 184 725.027 184C724.638 184 724.444 183.806 724.444 183.417V182.328C723.74 183.443 722.482 184 720.671 184H719.439ZM719.439 182.845H720.671C721.382 182.845 722.006 182.768 722.541 182.614C723.084 182.453 723.52 182.196 723.85 181.844C724.18 181.492 724.378 181.023 724.444 180.436V178.522H719.439C718.625 178.522 718.06 178.68 717.745 178.995C717.437 179.303 717.283 179.868 717.283 180.689C717.283 181.503 717.437 182.068 717.745 182.383C718.06 182.691 718.625 182.845 719.439 182.845ZM733.764 184C732.415 184 731.428 183.688 730.805 183.065C730.182 182.442 729.87 181.459 729.87 180.117V174.76H728.561C728.172 174.76 727.978 174.566 727.978 174.177C727.978 173.796 728.172 173.605 728.561 173.605H729.87V171.24C729.87 170.851 730.061 170.657 730.442 170.657C730.831 170.657 731.025 170.851 731.025 171.24V173.605H733.786C734.167 173.605 734.358 173.796 734.358 174.177C734.358 174.566 734.167 174.76 733.786 174.76H731.025V180.117C731.025 181.144 731.223 181.855 731.619 182.251C732.022 182.647 732.737 182.845 733.764 182.845C733.977 182.845 734.127 182.893 734.215 182.988C734.31 183.083 734.358 183.226 734.358 183.417C734.358 183.806 734.16 184 733.764 184ZM739.828 184C738.684 184 737.844 183.736 737.309 183.208C736.781 182.673 736.517 181.833 736.517 180.689C736.517 179.545 736.784 178.705 737.32 178.17C737.855 177.635 738.691 177.367 739.828 177.367H744.833C744.818 176.399 744.598 175.724 744.173 175.343C743.755 174.954 743.04 174.76 742.028 174.76H740.752C739.82 174.76 739.138 174.859 738.706 175.057C738.273 175.255 738.005 175.592 737.903 176.069C737.851 176.252 737.782 176.388 737.694 176.476C737.613 176.557 737.481 176.597 737.298 176.597C737.107 176.597 736.957 176.546 736.847 176.443C736.744 176.333 736.707 176.186 736.737 176.003C736.832 175.167 737.21 174.558 737.87 174.177C738.537 173.796 739.498 173.605 740.752 173.605H742.028C743.399 173.605 744.4 173.924 745.031 174.562C745.669 175.193 745.988 176.194 745.988 177.565V183.417C745.988 183.806 745.797 184 745.416 184C745.027 184 744.833 183.806 744.833 183.417V182.328C744.129 183.443 742.871 184 741.06 184H739.828ZM739.828 182.845H741.06C741.771 182.845 742.394 182.768 742.93 182.614C743.472 182.453 743.909 182.196 744.239 181.844C744.569 181.492 744.767 181.023 744.833 180.436V178.522H739.828C739.014 178.522 738.449 178.68 738.134 178.995C737.826 179.303 737.672 179.868 737.672 180.689C737.672 181.503 737.826 182.068 738.134 182.383C738.449 182.691 739.014 182.845 739.828 182.845Z" fill="#F7FAFC"/>
<path d="M459.314 113C457.106 113 455.492 112.49 454.472 111.47C453.452 110.45 452.942 108.842 452.942 106.646V97.88H450.8C450.164 97.88 449.846 97.562 449.846 96.926C449.846 96.302 450.164 95.99 450.8 95.99H452.942V92.12C452.942 91.484 453.254 91.166 453.878 91.166C454.514 91.166 454.832 91.484 454.832 92.12V95.99H459.35C459.974 95.99 460.286 96.302 460.286 96.926C460.286 97.562 459.974 97.88 459.35 97.88H454.832V106.646C454.832 108.326 455.156 109.49 455.804 110.138C456.464 110.786 457.634 111.11 459.314 111.11C459.662 111.11 459.908 111.188 460.052 111.344C460.208 111.5 460.286 111.734 460.286 112.046C460.286 112.682 459.962 113 459.314 113ZM466.222 113C465.586 113 465.268 112.682 465.268 112.046V88.97C465.268 88.346 465.586 88.034 466.222 88.034C466.846 88.034 467.158 88.346 467.158 88.97V98.654C468.298 96.878 470.362 95.99 473.35 95.99H474.358C476.602 95.99 478.24 96.512 479.272 97.556C480.316 98.588 480.838 100.226 480.838 102.47V112.046C480.838 112.682 480.526 113 479.902 113C479.266 113 478.948 112.682 478.948 112.046V102.47C478.948 100.754 478.606 99.56 477.922 98.888C477.25 98.216 476.062 97.88 474.358 97.88H473.35C471.49 97.88 470.026 98.174 468.958 98.762C467.89 99.35 467.29 100.268 467.158 101.516V112.046C467.158 112.682 466.846 113 466.222 113ZM488.195 113C487.559 113 487.241 112.682 487.241 112.046V96.926C487.241 96.302 487.559 95.99 488.195 95.99C488.819 95.99 489.131 96.302 489.131 96.926V112.046C489.131 112.682 488.819 113 488.195 113ZM487.799 92.696C486.971 92.696 486.557 92.27 486.557 91.418V90.608C486.557 89.792 486.971 89.384 487.799 89.384H488.591C489.407 89.384 489.815 89.792 489.815 90.608V91.418C489.815 92.27 489.407 92.696 488.591 92.696H487.799ZM496.808 113C496.172 113 495.854 112.682 495.854 112.046V96.926C495.854 96.302 496.172 95.99 496.808 95.99C497.432 95.99 497.744 96.302 497.744 96.926V98.654C498.884 96.878 500.948 95.99 503.936 95.99H504.944C507.188 95.99 508.826 96.512 509.858 97.556C510.902 98.588 511.424 100.226 511.424 102.47V112.046C511.424 112.682 511.112 113 510.488 113C509.852 113 509.534 112.682 509.534 112.046V102.47C509.534 100.754 509.192 99.56 508.508 98.888C507.836 98.216 506.648 97.88 504.944 97.88H503.936C502.076 97.88 500.612 98.174 499.544 98.762C498.476 99.35 497.876 100.268 497.744 101.516V112.046C497.744 112.682 497.432 113 496.808 113ZM521.967 120.2C520.551 120.2 519.471 119.906 518.727 119.318C517.983 118.742 517.545 117.83 517.413 116.582C517.377 116.27 517.443 116.024 517.611 115.844C517.779 115.664 518.013 115.574 518.313 115.574C518.613 115.574 518.841 115.652 518.997 115.808C519.153 115.964 519.255 116.198 519.303 116.51C519.387 117.206 519.633 117.68 520.041 117.932C520.449 118.184 521.091 118.31 521.967 118.31H528.663C529.719 118.31 530.433 118.118 530.805 117.734C531.189 117.35 531.381 116.63 531.381 115.574V110.426C530.829 111.266 530.049 111.908 529.041 112.352C528.033 112.784 526.755 113 525.207 113H523.839C521.595 113 519.951 112.484 518.907 111.452C517.863 110.408 517.341 108.77 517.341 106.538V102.47C517.341 100.202 517.857 98.558 518.889 97.538C519.933 96.506 521.583 95.99 523.839 95.99H526.791C527.967 95.99 528.921 96.146 529.653 96.458C530.385 96.77 530.961 97.256 531.381 97.916V96.926C531.381 96.302 531.699 95.99 532.335 95.99C532.959 95.99 533.271 96.302 533.271 96.926V115.574C533.271 117.158 532.899 118.322 532.155 119.066C531.411 119.822 530.247 120.2 528.663 120.2H521.967ZM523.839 111.11H525.207C527.079 111.11 528.573 110.816 529.689 110.228C530.817 109.64 531.381 108.746 531.381 107.546V101.534C531.381 100.178 531.003 99.23 530.247 98.69C529.491 98.15 528.339 97.88 526.791 97.88H523.839C522.123 97.88 520.923 98.216 520.239 98.888C519.567 99.548 519.231 100.742 519.231 102.47V106.538C519.231 108.23 519.567 109.418 520.239 110.102C520.923 110.774 522.123 111.11 523.839 111.11ZM543.42 112.964C541.944 112.964 540.816 112.652 540.036 112.028C539.256 111.392 538.788 110.426 538.632 109.13C538.596 108.818 538.662 108.578 538.83 108.41C538.998 108.23 539.244 108.14 539.568 108.14C539.868 108.14 540.09 108.218 540.234 108.374C540.39 108.53 540.492 108.764 540.54 109.076C540.648 109.82 540.918 110.342 541.35 110.642C541.794 110.93 542.484 111.074 543.42 111.074H549.324C550.44 111.074 551.208 110.864 551.628 110.444C552.048 110.024 552.258 109.256 552.258 108.14C552.258 107.012 552.048 106.238 551.628 105.818C551.208 105.398 550.44 105.188 549.324 105.188H543.492C541.932 105.188 540.768 104.816 540 104.072C539.244 103.316 538.866 102.158 538.866 100.598C538.866 99.002 539.244 97.832 540 97.088C540.756 96.332 541.92 95.954 543.492 95.954H549.144C551.856 95.954 553.362 97.154 553.662 99.554C553.71 99.866 553.644 100.112 553.464 100.292C553.296 100.46 553.056 100.544 552.744 100.544C552.444 100.544 552.216 100.466 552.06 100.31C551.916 100.154 551.814 99.926 551.754 99.626C551.67 98.954 551.424 98.492 551.016 98.24C550.62 97.976 549.996 97.844 549.144 97.844H543.492C542.448 97.844 541.728 98.036 541.332 98.42C540.948 98.804 540.756 99.53 540.756 100.598C540.756 101.618 540.954 102.326 541.35 102.722C541.746 103.106 542.46 103.298 543.492 103.298H549.324C550.98 103.298 552.198 103.694 552.978 104.486C553.758 105.266 554.148 106.484 554.148 108.14C554.148 109.784 553.758 111.002 552.978 111.794C552.198 112.574 550.98 112.964 549.324 112.964H543.42Z" fill="white"/>
<path d="M560.758 113C560.122 113 559.804 112.682 559.804 112.046V90.752C559.804 90.116 560.122 89.798 560.758 89.798C561.214 89.798 561.574 90.008 561.838 90.428L570.802 104.126L570.37 104.18L579.334 90.428C579.586 90.008 579.964 89.798 580.468 89.798C581.032 89.798 581.314 90.116 581.314 90.752V112.046C581.314 112.682 581.002 113 580.378 113C579.742 113 579.424 112.682 579.424 112.046V92.642L579.982 92.822L571.666 105.494C571.402 105.902 571.024 106.106 570.532 106.106C570.1 106.106 569.752 105.902 569.488 105.494L561.172 92.822L561.694 93.02V112.046C561.694 112.682 561.382 113 560.758 113ZM586.216 112.91C585.64 112.658 585.466 112.238 585.694 111.65L594.622 90.536C594.814 90.044 595.168 89.798 595.684 89.798H595.792C596.284 89.81 596.632 90.056 596.836 90.536L605.764 111.65C606.004 112.238 605.836 112.658 605.26 112.91C604.672 113.15 604.264 112.982 604.036 112.406L601.642 106.736H589.852L587.458 112.406C587.218 112.982 586.804 113.15 586.216 112.91ZM590.626 104.846H600.85L595.738 92.786L590.626 104.846ZM611.101 113C610.465 113 610.147 112.682 610.147 112.046V90.752C610.147 90.116 610.465 89.798 611.101 89.798H619.525C621.577 89.798 623.125 90.326 624.169 91.382C625.225 92.438 625.753 93.992 625.753 96.044V97.124C625.753 99.164 625.225 100.712 624.169 101.768C623.125 102.824 621.577 103.352 619.525 103.352H612.037V112.046C612.037 112.682 611.725 113 611.101 113ZM612.037 101.462H619.525C621.037 101.462 622.135 101.12 622.819 100.436C623.515 99.74 623.863 98.636 623.863 97.124V96.044C623.863 94.52 623.515 93.416 622.819 92.732C622.135 92.036 621.037 91.688 619.525 91.688H612.037V101.462Z" fill="#E15799"/>
<g clip-path="url(#clip0)">
<path d="M399.58 107.038C399.986 107.395 400.492 107.573 400.999 107.573C401.506 107.573 402.013 107.395 402.419 107.038C402.933 106.585 415.001 95.8278 415.001 84.6722C415.001 76.9487 408.72 70.665 401 70.665C393.279 70.665 386.997 76.9487 386.997 84.6722C386.997 95.8285 399.066 106.585 399.58 107.038V107.038ZM400.999 81.0111C403.004 81.0111 404.629 82.6492 404.629 84.6709C404.629 86.6924 403.004 88.3308 400.999 88.3308C398.994 88.3308 397.369 86.6922 397.369 84.6709C397.369 82.6492 398.994 81.0111 400.999 81.0111Z" fill="#E15799"/>
<path d="M427.906 107.031L426.284 101.347C426.021 100.425 425.178 99.7889 424.219 99.7889H412.643C412.225 100.411 411.783 101.035 411.316 101.663C408.071 106.023 404.773 108.971 404.407 109.294C403.466 110.123 402.256 110.58 401.001 110.58C399.747 110.58 398.537 110.123 397.594 109.293C397.229 108.971 393.93 106.022 390.685 101.663C390.218 101.035 389.777 100.411 389.358 99.7889H377.782C376.824 99.7889 375.981 100.425 375.717 101.347L373.784 108.121L416.996 116.036L427.906 107.031H427.906Z" fill="#E15799"/>
<path d="M432.918 124.598L428.774 110.075L408.214 127.335H430.853C431.527 127.335 432.162 127.019 432.567 126.481C432.973 125.943 433.103 125.246 432.918 124.598Z" fill="#E15799"/>
<path d="M379.514 112.229L372.955 111.027L369.083 124.598C368.898 125.246 369.027 125.944 369.433 126.481C369.839 127.019 370.474 127.335 371.148 127.335H379.514V112.229V112.229Z" fill="#E15799"/>
<path d="M382.521 112.778V127.335H403.536L414.007 118.547L382.521 112.778Z" fill="#E15799"/>
</g>
<defs>
<clipPath id="clip0">
<rect width="64" height="64" fill="white" transform="translate(369 67)"/>
</clipPath>
</defs>
</svg>
