<?xml version="1.0" encoding="UTF-8"?>
<svg viewBox="0 0 1000 256" xmlns="http://www.w3.org/2000/svg">
<rect width="1e3" height="256" rx="4" fill="#0E182A"/>
<path d="m259.35 184c-1.591 0-2.754-0.367-3.487-1.1s-1.1-1.896-1.1-3.487v-5.005c0-1.606 0.363-2.772 1.089-3.498 0.733-0.726 1.892-1.089 3.476-1.089h2.662c1.349 0 2.354 0.282 3.014 0.847 0.66 0.557 1.023 1.456 1.089 2.695 0.022 0.198-0.018 0.348-0.121 0.451-0.095 0.103-0.238 0.154-0.429 0.154-0.367 0-0.568-0.194-0.605-0.583-0.051-0.909-0.301-1.536-0.748-1.881-0.447-0.352-1.181-0.528-2.2-0.528h-2.662c-0.843 0-1.514 0.11-2.013 0.33-0.499 0.213-0.858 0.572-1.078 1.078-0.213 0.499-0.319 1.173-0.319 2.024v5.005c0 0.851 0.11 1.525 0.33 2.024s0.579 0.858 1.078 1.078 1.173 0.33 2.024 0.33h2.64c1.019 0 1.753-0.172 2.2-0.517 0.447-0.352 0.697-0.983 0.748-1.892 0.037-0.389 0.238-0.583 0.605-0.583 0.191 0 0.334 0.055 0.429 0.165 0.103 0.103 0.143 0.249 0.121 0.44-0.066 1.239-0.429 2.141-1.089 2.706-0.66 0.557-1.665 0.836-3.014 0.836h-2.64zm13.134 0c-1.371 0-2.376-0.315-3.014-0.946-0.638-0.638-0.957-1.639-0.957-3.003v-2.486c0-1.386 0.319-2.394 0.957-3.025 0.638-0.638 1.643-0.95 3.014-0.935h1.804c1.371 0 2.372 0.319 3.003 0.957 0.638 0.631 0.957 1.632 0.957 3.003v2.464c0 1.371-0.319 2.376-0.957 3.014-0.631 0.638-1.632 0.957-3.003 0.957h-1.804zm-2.816-3.949c0 1.034 0.205 1.76 0.616 2.178 0.418 0.411 1.151 0.616 2.2 0.616h1.804c1.049 0 1.778-0.205 2.189-0.616 0.411-0.418 0.616-1.151 0.616-2.2v-2.464c0-1.049-0.205-1.778-0.616-2.189s-1.14-0.616-2.189-0.616h-1.804c-0.704-7e-3 -1.261 0.077-1.672 0.253s-0.704 0.469-0.88 0.88-0.264 0.968-0.264 1.672v2.486zm15.423 3.949c-1.041 0-1.808-0.242-2.299-0.726-0.484-0.484-0.726-1.243-0.726-2.277v-11.682c0-0.381 0.194-0.572 0.583-0.572 0.381 0 0.572 0.191 0.572 0.572v11.682c0 0.711 0.132 1.199 0.396 1.463 0.264 0.257 0.752 0.385 1.463 0.385 0.396 0 0.594 0.191 0.594 0.572 7e-3 0.389-0.187 0.583-0.583 0.583zm6.402 0c-1.041 0-1.807-0.242-2.299-0.726-0.484-0.484-0.726-1.243-0.726-2.277v-11.682c0-0.381 0.195-0.572 0.583-0.572 0.382 0 0.572 0.191 0.572 0.572v11.682c0 0.711 0.132 1.199 0.396 1.463 0.264 0.257 0.752 0.385 1.463 0.385 0.396 0 0.594 0.191 0.594 0.572 8e-3 0.389-0.187 0.583-0.583 0.583zm3.806-4.752v0.803c0 1.034 0.205 1.76 0.616 2.178 0.418 0.411 1.151 0.616 2.2 0.616h1.804c0.924 0 1.595-0.117 2.013-0.352 0.425-0.242 0.678-0.656 0.759-1.243 0.029-0.183 0.088-0.323 0.176-0.418 0.095-0.095 0.238-0.143 0.429-0.143s0.334 0.055 0.429 0.165c0.103 0.103 0.143 0.249 0.121 0.44-0.095 0.924-0.466 1.606-1.111 2.046s-1.584 0.66-2.816 0.66h-1.804c-1.371 0-2.376-0.315-3.014-0.946-0.638-0.638-0.957-1.639-0.957-3.003v-2.486c0-1.386 0.319-2.394 0.957-3.025 0.638-0.638 1.643-0.95 3.014-0.935h1.804c1.371 0 2.372 0.319 3.003 0.957 0.638 0.631 0.957 1.632 0.957 3.003v1.1c0 0.389-0.191 0.583-0.572 0.583h-8.008zm2.816-4.488c-1.049-0.015-1.782 0.187-2.2 0.605-0.411 0.411-0.616 1.144-0.616 2.2v0.528h7.425v-0.528c0-1.049-0.205-1.778-0.616-2.189s-1.14-0.616-2.189-0.616h-1.804zm13.256 9.24c-1.372 0-2.376-0.319-3.014-0.957s-0.957-1.643-0.957-3.014v-2.486c0-1.371 0.315-2.372 0.946-3.003 0.638-0.638 1.646-0.95 3.025-0.935h1.804c1.078 0 1.899 0.183 2.464 0.55 0.572 0.359 0.913 0.928 1.023 1.705 0.022 0.198-0.022 0.348-0.132 0.451-0.103 0.103-0.25 0.154-0.44 0.154-0.176 0-0.308-0.044-0.396-0.132-0.088-0.095-0.154-0.231-0.198-0.407-0.081-0.425-0.297-0.726-0.649-0.902s-0.91-0.264-1.672-0.264h-1.804c-1.049-0.015-1.782 0.183-2.2 0.594-0.411 0.403-0.616 1.133-0.616 2.189v2.486c0 1.049 0.205 1.782 0.616 2.2 0.418 0.411 1.151 0.616 2.2 0.616h1.804c0.762 0 1.32-0.088 1.672-0.264s0.568-0.48 0.649-0.913c0.044-0.176 0.11-0.308 0.198-0.396 0.088-0.095 0.22-0.143 0.396-0.143 0.19 0 0.337 0.055 0.44 0.165 0.11 0.103 0.154 0.249 0.132 0.44-0.11 0.777-0.451 1.349-1.023 1.716-0.565 0.367-1.386 0.55-2.464 0.55h-1.804zm13.14 0c-1.349 0-2.336-0.312-2.959-0.935s-0.935-1.606-0.935-2.948v-5.357h-1.309c-0.389 0-0.583-0.194-0.583-0.583 0-0.381 0.194-0.572 0.583-0.572h1.309v-2.365c0-0.389 0.191-0.583 0.572-0.583 0.389 0 0.583 0.194 0.583 0.583v2.365h2.761c0.381 0 0.572 0.191 0.572 0.572 0 0.389-0.191 0.583-0.572 0.583h-2.761v5.357c0 1.027 0.198 1.738 0.594 2.134 0.403 0.396 1.118 0.594 2.145 0.594 0.213 0 0.363 0.048 0.451 0.143 0.095 0.095 0.143 0.238 0.143 0.429 0 0.389-0.198 0.583-0.594 0.583zm2.847 2.211c-0.169 0-0.308-0.048-0.418-0.143s-0.15-0.227-0.121-0.396l0.517-2.816c0.029-0.367 0.238-0.55 0.627-0.55h0.418c0.411 0 0.616 0.209 0.616 0.627v0.319c0 0.139-0.011 0.246-0.033 0.319-0.015 0.073-0.037 0.143-0.066 0.209l-1.034 2.079c-0.117 0.235-0.286 0.352-0.506 0.352zm11.408 2.189c-0.389 0-0.583-0.194-0.583-0.583v-13.64c0-0.381 0.194-0.572 0.583-0.572 0.381 0 0.572 0.191 0.572 0.572v0.979c0.33-0.513 0.803-0.898 1.419-1.155 0.616-0.264 1.404-0.396 2.365-0.396h0.836c1.371 0 2.372 0.319 3.003 0.957 0.638 0.631 0.957 1.632 0.957 3.003v2.464c0 1.371-0.319 2.376-0.957 3.014-0.631 0.638-1.632 0.957-3.003 0.957h-4.62v3.817c0 0.389-0.191 0.583-0.572 0.583zm0.572-5.555h4.62c1.049 0 1.778-0.205 2.189-0.616 0.411-0.418 0.616-1.151 0.616-2.2v-2.464c0-1.049-0.205-1.778-0.616-2.189s-1.14-0.616-2.189-0.616h-0.836c-1.173 0-2.075 0.183-2.706 0.55-0.623 0.367-0.983 0.931-1.078 1.694v5.841zm12.985 1.155c-0.389 0-0.583-0.194-0.583-0.583v-9.24c0-0.381 0.194-0.572 0.583-0.572 0.381 0 0.572 0.191 0.572 0.572v1.694c0.381-0.733 0.931-1.294 1.65-1.683 0.726-0.389 1.584-0.583 2.574-0.583 0.388 0 0.583 0.191 0.583 0.572 0 0.389-0.195 0.583-0.583 0.583-1.306 0-2.318 0.297-3.036 0.891-0.719 0.587-1.115 1.426-1.188 2.519v5.247c0 0.389-0.191 0.583-0.572 0.583zm10.954 0c-1.371 0-2.376-0.315-3.014-0.946-0.638-0.638-0.957-1.639-0.957-3.003v-2.486c0-1.386 0.319-2.394 0.957-3.025 0.638-0.638 1.643-0.95 3.014-0.935h1.804c1.371 0 2.372 0.319 3.003 0.957 0.638 0.631 0.957 1.632 0.957 3.003v2.464c0 1.371-0.319 2.376-0.957 3.014-0.631 0.638-1.632 0.957-3.003 0.957h-1.804zm-2.816-3.949c0 1.034 0.205 1.76 0.616 2.178 0.418 0.411 1.151 0.616 2.2 0.616h1.804c1.049 0 1.778-0.205 2.189-0.616 0.411-0.418 0.616-1.151 0.616-2.2v-2.464c0-1.049-0.205-1.778-0.616-2.189s-1.14-0.616-2.189-0.616h-1.804c-0.704-7e-3 -1.261 0.077-1.672 0.253s-0.704 0.469-0.88 0.88-0.264 0.968-0.264 1.672v2.486zm16.072 3.949c-1.372 0-2.376-0.319-3.014-0.957s-0.957-1.643-0.957-3.014v-2.486c0-1.371 0.315-2.372 0.946-3.003 0.638-0.638 1.646-0.95 3.025-0.935h1.804c1.078 0 1.899 0.183 2.464 0.55 0.572 0.359 0.913 0.928 1.023 1.705 0.022 0.198-0.022 0.348-0.132 0.451-0.103 0.103-0.25 0.154-0.44 0.154-0.176 0-0.308-0.044-0.396-0.132-0.088-0.095-0.154-0.231-0.198-0.407-0.081-0.425-0.297-0.726-0.649-0.902s-0.91-0.264-1.672-0.264h-1.804c-1.049-0.015-1.782 0.183-2.2 0.594-0.411 0.403-0.616 1.133-0.616 2.189v2.486c0 1.049 0.205 1.782 0.616 2.2 0.418 0.411 1.151 0.616 2.2 0.616h1.804c0.762 0 1.32-0.088 1.672-0.264s0.568-0.48 0.649-0.913c0.044-0.176 0.11-0.308 0.198-0.396 0.088-0.095 0.22-0.143 0.396-0.143 0.19 0 0.337 0.055 0.44 0.165 0.11 0.103 0.154 0.249 0.132 0.44-0.11 0.777-0.451 1.349-1.023 1.716-0.565 0.367-1.386 0.55-2.464 0.55h-1.804zm9.752-4.752v0.803c0 1.034 0.206 1.76 0.616 2.178 0.418 0.411 1.152 0.616 2.2 0.616h1.804c0.924 0 1.595-0.117 2.013-0.352 0.426-0.242 0.679-0.656 0.759-1.243 0.03-0.183 0.088-0.323 0.176-0.418 0.096-0.095 0.239-0.143 0.429-0.143 0.191 0 0.334 0.055 0.429 0.165 0.103 0.103 0.143 0.249 0.121 0.44-0.095 0.924-0.465 1.606-1.111 2.046-0.645 0.44-1.584 0.66-2.816 0.66h-1.804c-1.371 0-2.376-0.315-3.014-0.946-0.638-0.638-0.957-1.639-0.957-3.003v-2.486c0-1.386 0.319-2.394 0.957-3.025 0.638-0.638 1.643-0.95 3.014-0.935h1.804c1.372 0 2.373 0.319 3.003 0.957 0.638 0.631 0.957 1.632 0.957 3.003v1.1c0 0.389-0.19 0.583-0.572 0.583h-8.008zm2.816-4.488c-1.048-0.015-1.782 0.187-2.2 0.605-0.41 0.411-0.616 1.144-0.616 2.2v0.528h7.425v-0.528c0-1.049-0.205-1.778-0.616-2.189-0.41-0.411-1.14-0.616-2.189-0.616h-1.804zm11.859 9.218c-0.902 0-1.591-0.191-2.068-0.572-0.477-0.389-0.763-0.979-0.858-1.771-0.022-0.191 0.018-0.337 0.121-0.44 0.103-0.11 0.253-0.165 0.451-0.165 0.183 0 0.319 0.048 0.407 0.143 0.095 0.095 0.158 0.238 0.187 0.429 0.066 0.455 0.231 0.774 0.495 0.957 0.271 0.176 0.693 0.264 1.265 0.264h3.608c0.682 0 1.151-0.128 1.408-0.385s0.385-0.726 0.385-1.408c0-0.689-0.128-1.162-0.385-1.419s-0.726-0.385-1.408-0.385h-3.564c-0.953 0-1.665-0.227-2.134-0.682-0.462-0.462-0.693-1.17-0.693-2.123 0-0.975 0.231-1.69 0.693-2.145 0.462-0.462 1.173-0.693 2.134-0.693h3.454c1.657 0 2.578 0.733 2.761 2.2 0.029 0.191-0.011 0.341-0.121 0.451-0.103 0.103-0.249 0.154-0.44 0.154-0.183 0-0.323-0.048-0.418-0.143-0.088-0.095-0.15-0.235-0.187-0.418-0.051-0.411-0.202-0.693-0.451-0.847-0.242-0.161-0.623-0.242-1.144-0.242h-3.454c-0.638 0-1.078 0.117-1.32 0.352-0.235 0.235-0.352 0.678-0.352 1.331 0 0.623 0.121 1.056 0.363 1.298 0.242 0.235 0.678 0.352 1.309 0.352h3.564c1.012 0 1.756 0.242 2.233 0.726 0.477 0.477 0.715 1.221 0.715 2.233 0 1.005-0.238 1.749-0.715 2.233-0.477 0.477-1.221 0.715-2.233 0.715h-3.608zm12.289 0c-0.902 0-1.591-0.191-2.068-0.572-0.477-0.389-0.763-0.979-0.858-1.771-0.022-0.191 0.018-0.337 0.121-0.44 0.103-0.11 0.253-0.165 0.451-0.165 0.183 0 0.319 0.048 0.407 0.143 0.095 0.095 0.158 0.238 0.187 0.429 0.066 0.455 0.231 0.774 0.495 0.957 0.271 0.176 0.693 0.264 1.265 0.264h3.608c0.682 0 1.151-0.128 1.408-0.385s0.385-0.726 0.385-1.408c0-0.689-0.128-1.162-0.385-1.419s-0.726-0.385-1.408-0.385h-3.564c-0.953 0-1.665-0.227-2.134-0.682-0.462-0.462-0.693-1.17-0.693-2.123 0-0.975 0.231-1.69 0.693-2.145 0.462-0.462 1.173-0.693 2.134-0.693h3.454c1.657 0 2.578 0.733 2.761 2.2 0.029 0.191-0.011 0.341-0.121 0.451-0.103 0.103-0.249 0.154-0.44 0.154-0.183 0-0.323-0.048-0.418-0.143-0.088-0.095-0.15-0.235-0.187-0.418-0.051-0.411-0.202-0.693-0.451-0.847-0.242-0.161-0.623-0.242-1.144-0.242h-3.454c-0.638 0-1.078 0.117-1.32 0.352-0.235 0.235-0.352 0.678-0.352 1.331 0 0.623 0.121 1.056 0.363 1.298 0.242 0.235 0.678 0.352 1.309 0.352h3.564c1.012 0 1.756 0.242 2.233 0.726 0.477 0.477 0.715 1.221 0.715 2.233 0 1.005-0.238 1.749-0.715 2.233-0.477 0.477-1.221 0.715-2.233 0.715h-3.608zm18.625 0.022c-1.144 0-1.984-0.264-2.519-0.792-0.528-0.535-0.792-1.375-0.792-2.519s0.267-1.984 0.803-2.519c0.535-0.535 1.371-0.803 2.508-0.803h5.005c-0.015-0.968-0.235-1.643-0.66-2.024-0.418-0.389-1.133-0.583-2.145-0.583h-1.276c-0.932 0-1.614 0.099-2.046 0.297-0.433 0.198-0.701 0.535-0.803 1.012-0.052 0.183-0.121 0.319-0.209 0.407-0.081 0.081-0.213 0.121-0.396 0.121-0.191 0-0.341-0.051-0.451-0.154-0.103-0.11-0.14-0.257-0.11-0.44 0.095-0.836 0.473-1.445 1.133-1.826 0.667-0.381 1.628-0.572 2.882-0.572h1.276c1.371 0 2.372 0.319 3.003 0.957 0.638 0.631 0.957 1.632 0.957 3.003v5.852c0 0.389-0.191 0.583-0.572 0.583-0.389 0-0.583-0.194-0.583-0.583v-1.089c-0.704 1.115-1.962 1.672-3.773 1.672h-1.232zm0-1.155h1.232c0.711 0 1.334-0.077 1.87-0.231 0.542-0.161 0.979-0.418 1.309-0.77s0.528-0.821 0.594-1.408v-1.914h-5.005c-0.814 0-1.379 0.158-1.694 0.473-0.308 0.308-0.462 0.873-0.462 1.694 0 0.814 0.154 1.379 0.462 1.694 0.315 0.308 0.88 0.462 1.694 0.462zm10.662 1.155c-0.389 0-0.583-0.194-0.583-0.583v-9.24c0-0.381 0.194-0.572 0.583-0.572 0.381 0 0.572 0.191 0.572 0.572v1.056c0.696-1.085 1.958-1.628 3.784-1.628h0.616c1.371 0 2.372 0.319 3.003 0.957 0.638 0.631 0.957 1.632 0.957 3.003v5.852c0 0.389-0.191 0.583-0.572 0.583-0.389 0-0.583-0.194-0.583-0.583v-5.852c0-1.049-0.209-1.778-0.627-2.189-0.411-0.411-1.137-0.616-2.178-0.616h-0.616c-1.137 0-2.032 0.18-2.684 0.539-0.653 0.359-1.02 0.92-1.1 1.683v6.435c0 0.389-0.191 0.583-0.572 0.583zm16.518 0c-1.371 0-2.376-0.319-3.014-0.957s-0.957-1.643-0.957-3.014v-2.464c0-1.371 0.319-2.372 0.957-3.003 0.638-0.638 1.643-0.957 3.014-0.957h4.609v-4.29c0-0.381 0.195-0.572 0.583-0.572 0.382 0 0.572 0.191 0.572 0.572v14.102c0 0.389-0.19 0.583-0.572 0.583-0.388 0-0.583-0.194-0.583-0.583v-0.946c-0.315 0.506-0.777 0.887-1.386 1.144-0.608 0.257-1.404 0.385-2.387 0.385h-0.836zm0-1.155h0.836c1.144 0 2.057-0.18 2.739-0.539 0.69-0.367 1.034-0.913 1.034-1.639v-5.907h-4.609c-1.048 0-1.782 0.209-2.2 0.627-0.41 0.411-0.616 1.137-0.616 2.178v2.464c0 1.049 0.206 1.782 0.616 2.2 0.418 0.411 1.152 0.616 2.2 0.616zm19.204 0.715c-0.081 0.176-0.18 0.293-0.297 0.352s-0.253 0.088-0.407 0.088c-0.323 0-0.55-0.15-0.682-0.451l-4.081-9.141c-0.154-0.359-0.048-0.609 0.319-0.748 0.345-0.147 0.594-0.044 0.748 0.308l4.07 9.108h-0.704l4.334-9.119c0.081-0.169 0.187-0.279 0.319-0.33s0.282-0.04 0.451 0.033c0.359 0.161 0.458 0.418 0.297 0.77l-4.367 9.13zm7.612 0.44c-0.389 0-0.583-0.194-0.583-0.583v-9.24c0-0.381 0.194-0.572 0.583-0.572 0.381 0 0.572 0.191 0.572 0.572v9.24c0 0.389-0.191 0.583-0.572 0.583zm-0.242-12.408c-0.506 0-0.759-0.26-0.759-0.781v-0.495c0-0.499 0.253-0.748 0.759-0.748h0.484c0.498 0 0.748 0.249 0.748 0.748v0.495c0 0.521-0.25 0.781-0.748 0.781h-0.484zm7.199 12.386c-0.902 0-1.591-0.191-2.068-0.572-0.476-0.389-0.762-0.979-0.858-1.771-0.022-0.191 0.019-0.337 0.121-0.44 0.103-0.11 0.253-0.165 0.451-0.165 0.184 0 0.319 0.048 0.407 0.143 0.096 0.095 0.158 0.238 0.187 0.429 0.066 0.455 0.231 0.774 0.495 0.957 0.272 0.176 0.693 0.264 1.265 0.264h3.608c0.682 0 1.152-0.128 1.408-0.385 0.257-0.257 0.385-0.726 0.385-1.408 0-0.689-0.128-1.162-0.385-1.419-0.256-0.257-0.726-0.385-1.408-0.385h-3.564c-0.953 0-1.664-0.227-2.134-0.682-0.462-0.462-0.693-1.17-0.693-2.123 0-0.975 0.231-1.69 0.693-2.145 0.462-0.462 1.174-0.693 2.134-0.693h3.454c1.658 0 2.578 0.733 2.761 2.2 0.03 0.191-0.011 0.341-0.121 0.451-0.102 0.103-0.249 0.154-0.44 0.154-0.183 0-0.322-0.048-0.418-0.143-0.088-0.095-0.15-0.235-0.187-0.418-0.051-0.411-0.201-0.693-0.451-0.847-0.242-0.161-0.623-0.242-1.144-0.242h-3.454c-0.638 0-1.078 0.117-1.32 0.352-0.234 0.235-0.352 0.678-0.352 1.331 0 0.623 0.121 1.056 0.363 1.298 0.242 0.235 0.679 0.352 1.309 0.352h3.564c1.012 0 1.757 0.242 2.233 0.726 0.477 0.477 0.715 1.221 0.715 2.233 0 1.005-0.238 1.749-0.715 2.233-0.476 0.477-1.221 0.715-2.233 0.715h-3.608zm18.746-10.373c0.389 0 0.583 0.194 0.583 0.583v9.24c0 0.381-0.194 0.572-0.583 0.572-0.381 0-0.572-0.191-0.572-0.572v-1.056c-0.696 1.085-1.958 1.628-3.784 1.628h-0.616c-1.371 0-2.376-0.315-3.014-0.946-0.63-0.638-0.946-1.643-0.946-3.014v-5.852c0-0.389 0.191-0.583 0.572-0.583 0.389 0 0.583 0.194 0.583 0.583v5.852c0 1.049 0.206 1.778 0.616 2.189 0.418 0.411 1.148 0.616 2.189 0.616h0.616c1.137 0 2.032-0.18 2.684-0.539 0.653-0.359 1.02-0.92 1.1-1.683v-6.435c0-0.389 0.191-0.583 0.572-0.583zm7.785 10.395c-1.144 0-1.984-0.264-2.519-0.792-0.528-0.535-0.792-1.375-0.792-2.519s0.268-1.984 0.803-2.519 1.371-0.803 2.508-0.803h5.005c-0.015-0.968-0.235-1.643-0.66-2.024-0.418-0.389-1.133-0.583-2.145-0.583h-1.276c-0.931 0-1.613 0.099-2.046 0.297s-0.7 0.535-0.803 1.012c-0.051 0.183-0.121 0.319-0.209 0.407-0.081 0.081-0.213 0.121-0.396 0.121-0.191 0-0.341-0.051-0.451-0.154-0.103-0.11-0.139-0.257-0.11-0.44 0.095-0.836 0.473-1.445 1.133-1.826 0.667-0.381 1.628-0.572 2.882-0.572h1.276c1.371 0 2.372 0.319 3.003 0.957 0.638 0.631 0.957 1.632 0.957 3.003v5.852c0 0.389-0.191 0.583-0.572 0.583-0.389 0-0.583-0.194-0.583-0.583v-1.089c-0.704 1.115-1.962 1.672-3.773 1.672h-1.232zm0-1.155h1.232c0.711 0 1.335-0.077 1.87-0.231 0.543-0.161 0.979-0.418 1.309-0.77s0.528-0.821 0.594-1.408v-1.914h-5.005c-0.814 0-1.379 0.158-1.694 0.473-0.308 0.308-0.462 0.873-0.462 1.694 0 0.814 0.154 1.379 0.462 1.694 0.315 0.308 0.88 0.462 1.694 0.462zm13.104 1.155c-1.041 0-1.808-0.242-2.299-0.726-0.484-0.484-0.726-1.243-0.726-2.277v-11.682c0-0.381 0.194-0.572 0.583-0.572 0.381 0 0.572 0.191 0.572 0.572v11.682c0 0.711 0.132 1.199 0.396 1.463 0.264 0.257 0.752 0.385 1.463 0.385 0.396 0 0.594 0.191 0.594 0.572 7e-3 0.389-0.187 0.583-0.583 0.583zm3.96 0c-0.388 0-0.583-0.194-0.583-0.583v-9.24c0-0.381 0.195-0.572 0.583-0.572 0.382 0 0.572 0.191 0.572 0.572v9.24c0 0.389-0.19 0.583-0.572 0.583zm-0.242-12.408c-0.506 0-0.759-0.26-0.759-0.781v-0.495c0-0.499 0.253-0.748 0.759-0.748h0.484c0.499 0 0.748 0.249 0.748 0.748v0.495c0 0.521-0.249 0.781-0.748 0.781h-0.484zm4.791 12.408c-0.389 0-0.583-0.194-0.583-0.583 0-0.191 0.084-0.392 0.253-0.605l6.732-8.316 0.44 0.264h-4.983c-0.535 0-0.924 0.077-1.166 0.231s-0.396 0.444-0.462 0.869c-0.029 0.183-0.092 0.323-0.187 0.418-0.088 0.095-0.22 0.143-0.396 0.143-0.198 0-0.348-0.051-0.451-0.154s-0.143-0.253-0.121-0.451c0.081-0.763 0.348-1.32 0.803-1.672 0.462-0.359 1.122-0.539 1.98-0.539h5.39c0.381 0 0.572 0.191 0.572 0.572 0 0.213-0.081 0.422-0.242 0.627l-6.622 8.206-0.407-0.176 5.313 0.011c0.506 0 0.887-0.084 1.144-0.253 0.257-0.176 0.414-0.462 0.473-0.858 0.044-0.183 0.11-0.323 0.198-0.418s0.224-0.143 0.407-0.143c0.198 0 0.348 0.055 0.451 0.165 0.103 0.103 0.139 0.249 0.11 0.44-0.198 1.481-1.126 2.222-2.783 2.222h-5.863zm11.904-4.752v0.803c0 1.034 0.205 1.76 0.616 2.178 0.418 0.411 1.151 0.616 2.2 0.616h1.804c0.924 0 1.595-0.117 2.013-0.352 0.425-0.242 0.678-0.656 0.759-1.243 0.029-0.183 0.088-0.323 0.176-0.418 0.095-0.095 0.238-0.143 0.429-0.143s0.334 0.055 0.429 0.165c0.103 0.103 0.143 0.249 0.121 0.44-0.095 0.924-0.466 1.606-1.111 2.046s-1.584 0.66-2.816 0.66h-1.804c-1.371 0-2.376-0.315-3.014-0.946-0.638-0.638-0.957-1.639-0.957-3.003v-2.486c0-1.386 0.319-2.394 0.957-3.025 0.638-0.638 1.643-0.95 3.014-0.935h1.804c1.371 0 2.372 0.319 3.003 0.957 0.638 0.631 0.957 1.632 0.957 3.003v1.1c0 0.389-0.191 0.583-0.572 0.583h-8.008zm2.816-4.488c-1.049-0.015-1.782 0.187-2.2 0.605-0.411 0.411-0.616 1.144-0.616 2.2v0.528h7.425v-0.528c0-1.049-0.205-1.778-0.616-2.189s-1.14-0.616-2.189-0.616h-1.804zm17.721 13.64c-0.96 0-1.672-0.231-2.134-0.693-0.454-0.462-0.682-1.181-0.682-2.156 0-0.381 0.191-0.572 0.572-0.572 0.389 0 0.583 0.191 0.583 0.572 0 0.66 0.118 1.107 0.352 1.342 0.235 0.235 0.671 0.352 1.309 0.352h3.806c0.646 0 1.086-0.117 1.32-0.352 0.235-0.235 0.352-0.682 0.352-1.342v-3.025c-0.418 0.55-0.942 0.935-1.573 1.155-0.63 0.22-1.367 0.33-2.211 0.33h-0.616c-1.349 0-2.335-0.312-2.959-0.935-0.623-0.623-0.935-1.602-0.935-2.937v-5.973c0-0.389 0.191-0.583 0.572-0.583 0.389 0 0.583 0.194 0.583 0.583v5.973c0 1.019 0.198 1.727 0.594 2.123 0.404 0.396 1.119 0.594 2.145 0.594h0.616c1.284 0 2.233-0.224 2.849-0.671 0.624-0.455 0.935-1.137 0.935-2.046v-5.973c0-0.389 0.191-0.583 0.572-0.583 0.389 0 0.583 0.194 0.583 0.583v11.385c0 0.975-0.231 1.694-0.693 2.156-0.454 0.462-1.166 0.693-2.134 0.693h-3.806zm14.42-4.4c-1.372 0-2.376-0.315-3.014-0.946-0.638-0.638-0.957-1.639-0.957-3.003v-2.486c0-1.386 0.319-2.394 0.957-3.025 0.638-0.638 1.642-0.95 3.014-0.935h1.804c1.371 0 2.372 0.319 3.003 0.957 0.638 0.631 0.957 1.632 0.957 3.003v2.464c0 1.371-0.319 2.376-0.957 3.014-0.631 0.638-1.632 0.957-3.003 0.957h-1.804zm-2.816-3.949c0 1.034 0.205 1.76 0.616 2.178 0.418 0.411 1.151 0.616 2.2 0.616h1.804c1.048 0 1.778-0.205 2.189-0.616 0.41-0.418 0.616-1.151 0.616-2.2v-2.464c0-1.049-0.206-1.778-0.616-2.189-0.411-0.411-1.141-0.616-2.189-0.616h-1.804c-0.704-7e-3 -1.262 0.077-1.672 0.253-0.411 0.176-0.704 0.469-0.88 0.88s-0.264 0.968-0.264 1.672v2.486zm21.132-6.446c0.388 0 0.583 0.194 0.583 0.583v9.24c0 0.381-0.195 0.572-0.583 0.572-0.382 0-0.572-0.191-0.572-0.572v-1.056c-0.697 1.085-1.958 1.628-3.784 1.628h-0.616c-1.372 0-2.376-0.315-3.014-0.946-0.631-0.638-0.946-1.643-0.946-3.014v-5.852c0-0.389 0.19-0.583 0.572-0.583 0.388 0 0.583 0.194 0.583 0.583v5.852c0 1.049 0.205 1.778 0.616 2.189 0.418 0.411 1.147 0.616 2.189 0.616h0.616c1.136 0 2.031-0.18 2.684-0.539 0.652-0.359 1.019-0.92 1.1-1.683v-6.435c0-0.389 0.19-0.583 0.572-0.583zm5.276 10.395c-0.388 0-0.583-0.194-0.583-0.583v-9.24c0-0.381 0.195-0.572 0.583-0.572 0.382 0 0.572 0.191 0.572 0.572v1.694c0.382-0.733 0.932-1.294 1.65-1.683 0.726-0.389 1.584-0.583 2.574-0.583 0.389 0 0.583 0.191 0.583 0.572 0 0.389-0.194 0.583-0.583 0.583-1.305 0-2.317 0.297-3.036 0.891-0.718 0.587-1.114 1.426-1.188 2.519v5.247c0 0.389-0.19 0.583-0.572 0.583zm15.509-0.022c-0.902 0-1.592-0.191-2.068-0.572-0.477-0.389-0.763-0.979-0.858-1.771-0.022-0.191 0.018-0.337 0.121-0.44 0.102-0.11 0.253-0.165 0.451-0.165 0.183 0 0.319 0.048 0.407 0.143 0.095 0.095 0.157 0.238 0.187 0.429 0.066 0.455 0.231 0.774 0.495 0.957 0.271 0.176 0.693 0.264 1.265 0.264h3.608c0.682 0 1.151-0.128 1.408-0.385 0.256-0.257 0.385-0.726 0.385-1.408 0-0.689-0.129-1.162-0.385-1.419-0.257-0.257-0.726-0.385-1.408-0.385h-3.564c-0.954 0-1.665-0.227-2.134-0.682-0.462-0.462-0.693-1.17-0.693-2.123 0-0.975 0.231-1.69 0.693-2.145 0.462-0.462 1.173-0.693 2.134-0.693h3.454c1.657 0 2.577 0.733 2.761 2.2 0.029 0.191-0.011 0.341-0.121 0.451-0.103 0.103-0.25 0.154-0.44 0.154-0.184 0-0.323-0.048-0.418-0.143-0.088-0.095-0.151-0.235-0.187-0.418-0.052-0.411-0.202-0.693-0.451-0.847-0.242-0.161-0.624-0.242-1.144-0.242h-3.454c-0.638 0-1.078 0.117-1.32 0.352-0.235 0.235-0.352 0.678-0.352 1.331 0 0.623 0.121 1.056 0.363 1.298 0.242 0.235 0.678 0.352 1.309 0.352h3.564c1.012 0 1.756 0.242 2.233 0.726 0.476 0.477 0.715 1.221 0.715 2.233 0 1.005-0.239 1.749-0.715 2.233-0.477 0.477-1.221 0.715-2.233 0.715h-3.608zm10.87-4.73v0.803c0 1.034 0.205 1.76 0.616 2.178 0.418 0.411 1.151 0.616 2.2 0.616h1.804c0.924 0 1.595-0.117 2.013-0.352 0.425-0.242 0.678-0.656 0.759-1.243 0.029-0.183 0.088-0.323 0.176-0.418 0.095-0.095 0.238-0.143 0.429-0.143 0.19 0 0.333 0.055 0.429 0.165 0.102 0.103 0.143 0.249 0.121 0.44-0.096 0.924-0.466 1.606-1.111 2.046-0.646 0.44-1.584 0.66-2.816 0.66h-1.804c-1.372 0-2.376-0.315-3.014-0.946-0.638-0.638-0.957-1.639-0.957-3.003v-2.486c0-1.386 0.319-2.394 0.957-3.025 0.638-0.638 1.642-0.95 3.014-0.935h1.804c1.371 0 2.372 0.319 3.003 0.957 0.638 0.631 0.957 1.632 0.957 3.003v1.1c0 0.389-0.191 0.583-0.572 0.583h-8.008zm2.816-4.488c-1.049-0.015-1.782 0.187-2.2 0.605-0.411 0.411-0.616 1.144-0.616 2.2v0.528h7.425v-0.528c0-1.049-0.206-1.778-0.616-2.189-0.411-0.411-1.141-0.616-2.189-0.616h-1.804zm10.165 9.24c-0.389 0-0.583-0.194-0.583-0.583v-9.24c0-0.381 0.194-0.572 0.583-0.572 0.381 0 0.572 0.191 0.572 0.572v1.056c0.696-1.085 1.958-1.628 3.784-1.628h0.616c1.371 0 2.372 0.319 3.003 0.957 0.638 0.631 0.957 1.632 0.957 3.003v5.852c0 0.389-0.191 0.583-0.572 0.583-0.389 0-0.583-0.194-0.583-0.583v-5.852c0-1.049-0.209-1.778-0.627-2.189-0.411-0.411-1.137-0.616-2.178-0.616h-0.616c-1.137 0-2.032 0.18-2.684 0.539-0.653 0.359-1.02 0.92-1.1 1.683v6.435c0 0.389-0.191 0.583-0.572 0.583zm15.121-0.022c-0.902 0-1.591-0.191-2.068-0.572-0.476-0.389-0.762-0.979-0.858-1.771-0.022-0.191 0.019-0.337 0.121-0.44 0.103-0.11 0.253-0.165 0.451-0.165 0.184 0 0.319 0.048 0.407 0.143 0.096 0.095 0.158 0.238 0.187 0.429 0.066 0.455 0.231 0.774 0.495 0.957 0.272 0.176 0.693 0.264 1.265 0.264h3.608c0.682 0 1.152-0.128 1.408-0.385 0.257-0.257 0.385-0.726 0.385-1.408 0-0.689-0.128-1.162-0.385-1.419-0.256-0.257-0.726-0.385-1.408-0.385h-3.564c-0.953 0-1.664-0.227-2.134-0.682-0.462-0.462-0.693-1.17-0.693-2.123 0-0.975 0.231-1.69 0.693-2.145 0.462-0.462 1.174-0.693 2.134-0.693h3.454c1.658 0 2.578 0.733 2.761 2.2 0.03 0.191-0.011 0.341-0.121 0.451-0.102 0.103-0.249 0.154-0.44 0.154-0.183 0-0.322-0.048-0.418-0.143-0.088-0.095-0.15-0.235-0.187-0.418-0.051-0.411-0.201-0.693-0.451-0.847-0.242-0.161-0.623-0.242-1.144-0.242h-3.454c-0.638 0-1.078 0.117-1.32 0.352-0.234 0.235-0.352 0.678-0.352 1.331 0 0.623 0.121 1.056 0.363 1.298 0.242 0.235 0.679 0.352 1.309 0.352h3.564c1.012 0 1.757 0.242 2.233 0.726 0.477 0.477 0.715 1.221 0.715 2.233 0 1.005-0.238 1.749-0.715 2.233-0.476 0.477-1.221 0.715-2.233 0.715h-3.608zm13.686 0.022c-1.371 0-2.376-0.315-3.014-0.946-0.638-0.638-0.957-1.639-0.957-3.003v-2.486c0-1.386 0.319-2.394 0.957-3.025 0.638-0.638 1.643-0.95 3.014-0.935h1.804c1.372 0 2.373 0.319 3.003 0.957 0.638 0.631 0.957 1.632 0.957 3.003v2.464c0 1.371-0.319 2.376-0.957 3.014-0.63 0.638-1.631 0.957-3.003 0.957h-1.804zm-2.816-3.949c0 1.034 0.206 1.76 0.616 2.178 0.418 0.411 1.152 0.616 2.2 0.616h1.804c1.049 0 1.779-0.205 2.189-0.616 0.411-0.418 0.616-1.151 0.616-2.2v-2.464c0-1.049-0.205-1.778-0.616-2.189-0.41-0.411-1.14-0.616-2.189-0.616h-1.804c-0.704-7e-3 -1.261 0.077-1.672 0.253-0.41 0.176-0.704 0.469-0.88 0.88s-0.264 0.968-0.264 1.672v2.486zm12.981 3.949c-0.388 0-0.583-0.194-0.583-0.583v-9.24c0-0.381 0.195-0.572 0.583-0.572 0.382 0 0.572 0.191 0.572 0.572v1.694c0.382-0.733 0.932-1.294 1.65-1.683 0.726-0.389 1.584-0.583 2.574-0.583 0.389 0 0.583 0.191 0.583 0.572 0 0.389-0.194 0.583-0.583 0.583-1.305 0-2.317 0.297-3.036 0.891-0.718 0.587-1.114 1.426-1.188 2.519v5.247c0 0.389-0.19 0.583-0.572 0.583zm16.906 0c-1.372 0-2.376-0.319-3.014-0.957s-0.957-1.643-0.957-3.014v-2.464c0-1.371 0.319-2.372 0.957-3.003 0.638-0.638 1.642-0.957 3.014-0.957h4.609v-4.29c0-0.381 0.194-0.572 0.583-0.572 0.381 0 0.572 0.191 0.572 0.572v14.102c0 0.389-0.191 0.583-0.572 0.583-0.389 0-0.583-0.194-0.583-0.583v-0.946c-0.316 0.506-0.778 0.887-1.386 1.144-0.609 0.257-1.405 0.385-2.387 0.385h-0.836zm0-1.155h0.836c1.144 0 2.057-0.18 2.739-0.539 0.689-0.367 1.034-0.913 1.034-1.639v-5.907h-4.609c-1.049 0-1.782 0.209-2.2 0.627-0.411 0.411-0.616 1.137-0.616 2.178v2.464c0 1.049 0.205 1.782 0.616 2.2 0.418 0.411 1.151 0.616 2.2 0.616zm12.78 1.155c-1.144 0-1.984-0.264-2.519-0.792-0.528-0.535-0.792-1.375-0.792-2.519s0.268-1.984 0.803-2.519 1.371-0.803 2.508-0.803h5.005c-0.015-0.968-0.235-1.643-0.66-2.024-0.418-0.389-1.133-0.583-2.145-0.583h-1.276c-0.931 0-1.613 0.099-2.046 0.297s-0.7 0.535-0.803 1.012c-0.051 0.183-0.121 0.319-0.209 0.407-0.081 0.081-0.213 0.121-0.396 0.121-0.191 0-0.341-0.051-0.451-0.154-0.103-0.11-0.139-0.257-0.11-0.44 0.095-0.836 0.473-1.445 1.133-1.826 0.667-0.381 1.628-0.572 2.882-0.572h1.276c1.371 0 2.372 0.319 3.003 0.957 0.638 0.631 0.957 1.632 0.957 3.003v5.852c0 0.389-0.191 0.583-0.572 0.583-0.389 0-0.583-0.194-0.583-0.583v-1.089c-0.704 1.115-1.962 1.672-3.773 1.672h-1.232zm0-1.155h1.232c0.711 0 1.335-0.077 1.87-0.231 0.543-0.161 0.979-0.418 1.309-0.77s0.528-0.821 0.594-1.408v-1.914h-5.005c-0.814 0-1.379 0.158-1.694 0.473-0.308 0.308-0.462 0.873-0.462 1.694 0 0.814 0.154 1.379 0.462 1.694 0.315 0.308 0.88 0.462 1.694 0.462zm14.325 1.155c-1.349 0-2.336-0.312-2.959-0.935s-0.935-1.606-0.935-2.948v-5.357h-1.309c-0.389 0-0.583-0.194-0.583-0.583 0-0.381 0.194-0.572 0.583-0.572h1.309v-2.365c0-0.389 0.191-0.583 0.572-0.583 0.389 0 0.583 0.194 0.583 0.583v2.365h2.761c0.381 0 0.572 0.191 0.572 0.572 0 0.389-0.191 0.583-0.572 0.583h-2.761v5.357c0 1.027 0.198 1.738 0.594 2.134 0.403 0.396 1.118 0.594 2.145 0.594 0.213 0 0.363 0.048 0.451 0.143 0.095 0.095 0.143 0.238 0.143 0.429 0 0.389-0.198 0.583-0.594 0.583zm6.064 0c-1.144 0-1.984-0.264-2.519-0.792-0.528-0.535-0.792-1.375-0.792-2.519s0.267-1.984 0.803-2.519c0.535-0.535 1.371-0.803 2.508-0.803h5.005c-0.015-0.968-0.235-1.643-0.66-2.024-0.418-0.389-1.133-0.583-2.145-0.583h-1.276c-0.932 0-1.614 0.099-2.046 0.297-0.433 0.198-0.701 0.535-0.803 1.012-0.052 0.183-0.121 0.319-0.209 0.407-0.081 0.081-0.213 0.121-0.396 0.121-0.191 0-0.341-0.051-0.451-0.154-0.103-0.11-0.14-0.257-0.11-0.44 0.095-0.836 0.473-1.445 1.133-1.826 0.667-0.381 1.628-0.572 2.882-0.572h1.276c1.371 0 2.372 0.319 3.003 0.957 0.638 0.631 0.957 1.632 0.957 3.003v5.852c0 0.389-0.191 0.583-0.572 0.583-0.389 0-0.583-0.194-0.583-0.583v-1.089c-0.704 1.115-1.962 1.672-3.773 1.672h-1.232zm0-1.155h1.232c0.711 0 1.334-0.077 1.87-0.231 0.542-0.161 0.979-0.418 1.309-0.77s0.528-0.821 0.594-1.408v-1.914h-5.005c-0.814 0-1.379 0.158-1.694 0.473-0.308 0.308-0.462 0.873-0.462 1.694 0 0.814 0.154 1.379 0.462 1.694 0.315 0.308 0.88 0.462 1.694 0.462z" fill="#F7FAFC"/>
<path d="m459.31 113c-2.208 0-3.822-0.51-4.842-1.53s-1.53-2.628-1.53-4.824v-8.766h-2.142c-0.636 0-0.954-0.318-0.954-0.954 0-0.624 0.318-0.936 0.954-0.936h2.142v-3.87c0-0.636 0.312-0.954 0.936-0.954 0.636 0 0.954 0.318 0.954 0.954v3.87h4.518c0.624 0 0.936 0.312 0.936 0.936 0 0.636-0.312 0.954-0.936 0.954h-4.518v8.766c0 1.68 0.324 2.844 0.972 3.492 0.66 0.648 1.83 0.972 3.51 0.972 0.348 0 0.594 0.078 0.738 0.234 0.156 0.156 0.234 0.39 0.234 0.702 0 0.636-0.324 0.954-0.972 0.954zm6.908 0c-0.636 0-0.954-0.318-0.954-0.954v-23.076c0-0.624 0.318-0.936 0.954-0.936 0.624 0 0.936 0.312 0.936 0.936v9.684c1.14-1.776 3.204-2.664 6.192-2.664h1.008c2.244 0 3.882 0.522 4.914 1.566 1.044 1.032 1.566 2.67 1.566 4.914v9.576c0 0.636-0.312 0.954-0.936 0.954-0.636 0-0.954-0.318-0.954-0.954v-9.576c0-1.716-0.342-2.91-1.026-3.582-0.672-0.672-1.86-1.008-3.564-1.008h-1.008c-1.86 0-3.324 0.294-4.392 0.882s-1.668 1.506-1.8 2.754v10.53c0 0.636-0.312 0.954-0.936 0.954zm21.973 0c-0.636 0-0.954-0.318-0.954-0.954v-15.12c0-0.624 0.318-0.936 0.954-0.936 0.624 0 0.936 0.312 0.936 0.936v15.12c0 0.636-0.312 0.954-0.936 0.954zm-0.396-20.304c-0.828 0-1.242-0.426-1.242-1.278v-0.81c0-0.816 0.414-1.224 1.242-1.224h0.792c0.816 0 1.224 0.408 1.224 1.224v0.81c0 0.852-0.408 1.278-1.224 1.278h-0.792zm9.009 20.304c-0.636 0-0.954-0.318-0.954-0.954v-15.12c0-0.624 0.318-0.936 0.954-0.936 0.624 0 0.936 0.312 0.936 0.936v1.728c1.14-1.776 3.204-2.664 6.192-2.664h1.008c2.244 0 3.882 0.522 4.914 1.566 1.044 1.032 1.566 2.67 1.566 4.914v9.576c0 0.636-0.312 0.954-0.936 0.954-0.636 0-0.954-0.318-0.954-0.954v-9.576c0-1.716-0.342-2.91-1.026-3.582-0.672-0.672-1.86-1.008-3.564-1.008h-1.008c-1.86 0-3.324 0.294-4.392 0.882s-1.668 1.506-1.8 2.754v10.53c0 0.636-0.312 0.954-0.936 0.954zm25.159 7.2c-1.416 0-2.496-0.294-3.24-0.882-0.744-0.576-1.182-1.488-1.314-2.736-0.036-0.312 0.03-0.558 0.198-0.738s0.402-0.27 0.702-0.27 0.528 0.078 0.684 0.234 0.258 0.39 0.306 0.702c0.084 0.696 0.33 1.17 0.738 1.422s1.05 0.378 1.926 0.378h6.696c1.056 0 1.77-0.192 2.142-0.576 0.384-0.384 0.576-1.104 0.576-2.16v-5.148c-0.552 0.84-1.332 1.482-2.34 1.926-1.008 0.432-2.286 0.648-3.834 0.648h-1.368c-2.244 0-3.888-0.516-4.932-1.548-1.044-1.044-1.566-2.682-1.566-4.914v-4.068c0-2.268 0.516-3.912 1.548-4.932 1.044-1.032 2.694-1.548 4.95-1.548h2.952c1.176 0 2.13 0.156 2.862 0.468s1.308 0.798 1.728 1.458v-0.99c0-0.624 0.318-0.936 0.954-0.936 0.624 0 0.936 0.312 0.936 0.936v18.648c0 1.584-0.372 2.748-1.116 3.492-0.744 0.756-1.908 1.134-3.492 1.134h-6.696zm1.872-9.09h1.368c1.872 0 3.366-0.294 4.482-0.882 1.128-0.588 1.692-1.482 1.692-2.682v-6.012c0-1.356-0.378-2.304-1.134-2.844s-1.908-0.81-3.456-0.81h-2.952c-1.716 0-2.916 0.336-3.6 1.008-0.672 0.66-1.008 1.854-1.008 3.582v4.068c0 1.692 0.336 2.88 1.008 3.564 0.684 0.672 1.884 1.008 3.6 1.008zm19.581 1.854c-1.476 0-2.604-0.312-3.384-0.936-0.78-0.636-1.248-1.602-1.404-2.898-0.036-0.312 0.03-0.552 0.198-0.72 0.168-0.18 0.414-0.27 0.738-0.27 0.3 0 0.522 0.078 0.666 0.234 0.156 0.156 0.258 0.39 0.306 0.702 0.108 0.744 0.378 1.266 0.81 1.566 0.444 0.288 1.134 0.432 2.07 0.432h5.904c1.116 0 1.884-0.21 2.304-0.63s0.63-1.188 0.63-2.304c0-1.128-0.21-1.902-0.63-2.322s-1.188-0.63-2.304-0.63h-5.832c-1.56 0-2.724-0.372-3.492-1.116-0.756-0.756-1.134-1.914-1.134-3.474 0-1.596 0.378-2.766 1.134-3.51 0.756-0.756 1.92-1.134 3.492-1.134h5.652c2.712 0 4.218 1.2 4.518 3.6 0.048 0.312-0.018 0.558-0.198 0.738-0.168 0.168-0.408 0.252-0.72 0.252-0.3 0-0.528-0.078-0.684-0.234-0.144-0.156-0.246-0.384-0.306-0.684-0.084-0.672-0.33-1.134-0.738-1.386-0.396-0.264-1.02-0.396-1.872-0.396h-5.652c-1.044 0-1.764 0.192-2.16 0.576-0.384 0.384-0.576 1.11-0.576 2.178 0 1.02 0.198 1.728 0.594 2.124 0.396 0.384 1.11 0.576 2.142 0.576h5.832c1.656 0 2.874 0.396 3.654 1.188 0.78 0.78 1.17 1.998 1.17 3.654 0 1.644-0.39 2.862-1.17 3.654-0.78 0.78-1.998 1.17-3.654 1.17h-5.904z" fill="#fff"/>
<path d="m560.76 113c-0.288 0-0.522-0.084-0.702-0.252-0.168-0.18-0.252-0.414-0.252-0.702v-21.294c0-0.288 0.084-0.516 0.252-0.684 0.18-0.18 0.414-0.27 0.702-0.27s0.516 0.09 0.684 0.27c0.168 0.168 0.252 0.396 0.252 0.684v9.54h15.102v-9.54c0-0.288 0.084-0.516 0.252-0.684 0.168-0.18 0.396-0.27 0.684-0.27s0.516 0.09 0.684 0.27c0.18 0.168 0.27 0.396 0.27 0.684v21.294c0 0.288-0.09 0.522-0.27 0.702-0.168 0.168-0.396 0.252-0.684 0.252s-0.516-0.084-0.684-0.252c-0.168-0.18-0.252-0.414-0.252-0.702v-9.864h-15.102v9.864c0 0.288-0.084 0.522-0.252 0.702-0.168 0.168-0.396 0.252-0.684 0.252zm32 0c-2.604 0-4.506-0.6-5.706-1.8s-1.8-3.102-1.8-5.706v-14.742c0-0.288 0.084-0.516 0.252-0.684 0.18-0.18 0.414-0.27 0.702-0.27s0.516 0.09 0.684 0.27c0.168 0.168 0.252 0.396 0.252 0.684v14.742c0 1.392 0.18 2.496 0.54 3.312s0.948 1.404 1.764 1.764 1.92 0.54 3.312 0.54h4.32c1.38 0 2.478-0.18 3.294-0.54s1.404-0.948 1.764-1.764 0.54-1.92 0.54-3.312v-14.742c0-0.288 0.084-0.516 0.252-0.684 0.18-0.18 0.414-0.27 0.702-0.27s0.516 0.09 0.684 0.27c0.168 0.168 0.252 0.396 0.252 0.684v14.742c0 2.604-0.6 4.506-1.8 5.706-1.188 1.2-3.084 1.8-5.688 1.8h-4.32zm19.328 0c-0.636 0-0.954-0.318-0.954-0.954v-21.294c0-0.636 0.318-0.954 0.954-0.954h9.396c1.764 0 3.096 0.45 3.996 1.35 0.912 0.888 1.368 2.196 1.368 3.924v0.972c0 1.884-0.606 3.216-1.818 3.996 2.1 0.864 3.15 2.736 3.15 5.616v1.134c0 2.04-0.528 3.588-1.584 4.644-1.044 1.044-2.592 1.566-4.644 1.566h-9.864zm0.936-1.89h8.928c1.524 0 2.628-0.342 3.312-1.026s1.026-1.782 1.026-3.294v-1.134c0-1.512-0.342-2.604-1.026-3.276-0.672-0.672-1.776-1.008-3.312-1.008h-8.928v9.738zm0-11.628h8.73c1.092 0 1.896-0.276 2.412-0.828 0.528-0.564 0.792-1.434 0.792-2.61v-0.972c0-1.2-0.276-2.064-0.828-2.592-0.54-0.528-1.422-0.792-2.646-0.792h-8.46v7.794z" fill="#E15799"/>
<path d="m433 99c0 17.673-14.327 32-32 32s-32-14.327-32-32c0-17.673 14.327-32 32-32s32 14.327 32 32zm-29.781 11.644c0.216 0.189 0.494 0.294 0.782 0.294 0.252-1e-3 0.497-0.081 0.7-0.23 0.203-0.148 0.354-0.358 0.431-0.597l3.067-9.64 0.77 3.299c0.055 0.237 0.181 0.45 0.361 0.612 0.18 0.163 0.406 0.266 0.646 0.297 0.241 0.03 0.485-0.014 0.7-0.127 0.215-0.112 0.39-0.288 0.502-0.503l2.011-3.861h6.811c0.315 0 0.617-0.125 0.84-0.3478 0.222-0.2227 0.348-0.5248 0.348-0.8397s-0.126-0.617-0.348-0.8397c-0.223-0.2227-0.525-0.3478-0.84-0.3478h-7.531c-0.218 0-0.431 0.0596-0.616 0.1722-0.186 0.1127-0.337 0.2741-0.437 0.4668l-0.863 1.656-1.021-4.3774c-0.06-0.2532-0.2-0.48-0.401-0.6457-0.2-0.1656-0.449-0.2608-0.709-0.271-0.26-0.0106-0.516 0.0646-0.729 0.214-0.213 0.1493-0.371 0.3645-0.45 0.6125l-2.772 8.7136-2.294-17.012c-0.037-0.2705-0.165-0.5201-0.364-0.707-0.199-0.1868-0.457-0.2993-0.729-0.3187-0.272-0.0193-0.543 0.0557-0.766 0.2125-0.224 0.1568-0.386 0.3857-0.461 0.6484l-2.548 8.9997-0.512-3.1186c-0.042-0.2554-0.166-0.4901-0.354-0.6684-0.188-0.1782-0.428-0.2904-0.686-0.3193-0.257-0.0289-0.516 0.0269-0.739 0.1591-0.222 0.1323-0.396 0.3336-0.493 0.5733l-3.204 7.8734-1.953-5.4512c-0.073-0.2048-0.202-0.3855-0.371-0.5223-0.169-0.1369-0.372-0.2247-0.588-0.2539-0.215-0.0292-0.435 0.0014-0.634 0.0883-0.199 0.087-0.371 0.2271-0.496 0.405l-2.02 2.8708h-6.009c-0.315 0-0.617 0.1252-0.84 0.3479-0.222 0.2227-0.348 0.5247-0.348 0.8397 0 0.3149 0.126 0.6169 0.348 0.8396 0.223 0.2231 0.525 0.3481 0.84 0.3481h6.625c0.191 0 0.378-0.046 0.547-0.134 0.169-0.0875 0.315-0.2146 0.424-0.3704l1.058-1.5031 2.228 6.2205c0.081 0.226 0.229 0.423 0.424 0.563s0.428 0.218 0.669 0.224c0.491 7e-3 0.94-0.284 1.125-0.74l2.786-6.8461 0.692 4.2161c0.044 0.266 0.177 0.51 0.378 0.69 0.201 0.181 0.457 0.287 0.727 0.303 0.557 0.033 1.058-0.327 1.21-0.862l2.443-8.6299 2.237 16.59c0.039 0.285 0.179 0.546 0.396 0.735z" clip-rule="evenodd" fill="#E15799" fill-rule="evenodd"/>
</svg>
